<?xml version="1.0" encoding="UTF-8" standalone="no"?><!DOCTYPE svg PUBLIC "-//W3C//DTD SVG 1.1//EN" "http://www.w3.org/Graphics/SVG/1.1/DTD/svg11.dtd"><svg width="100%" height="100%" viewBox="0 0 132 132" version="1.1" xmlns="http://www.w3.org/2000/svg" xmlns:xlink="http://www.w3.org/1999/xlink" xml:space="preserve" xmlns:serif="http://www.serif.com/" style="fill-rule:evenodd;clip-rule:evenodd;stroke-linejoin:round;stroke-miterlimit:2;"><rect id="ICONS-SVG" serif:id="ICONS SVG" x="0" y="0" width="131.067" height="131.086" style="fill:none;"/><g id="icon_bank"><path d="M58.446,100.843l-0.002,0.001l-0.111,-0.814c-0.113,0.019 -0.254,0.043 -0.423,0.072c-0.205,0.035 -0.414,0.055 -0.628,0.059c-0.215,-0.004 -0.373,-0 -0.488,0.006c-0.457,-0.006 -1.092,-0.107 -1.901,-0.287c-0.009,-0.002 -0.018,-0.004 -0.027,-0.006c-0.584,-0.117 -1.236,-0.171 -1.957,-0.157c-0.727,0.015 -1.446,0.123 -2.156,0.327c-0.984,0.281 -1.545,0.797 -1.734,1.512c-0.175,0.65 0.03,1.248 0.659,1.785c0.655,0.559 1.911,1.072 3.819,1.456c4.335,0.947 8.77,0.769 13.305,-0.549c0.309,2.174 0.647,4.292 1.012,6.353l0.087,0.326c0.021,0.076 0.056,0.149 0.103,0.217c0.624,0.898 1.978,1.497 4.182,1.594c1.511,0.08 2.51,-0.179 3.051,-0.589c0.482,-0.366 0.725,-0.866 0.629,-1.524c-0.001,-0.004 -0.002,-0.009 -0.002,-0.013c-0.507,-3.055 -1.021,-6.235 -1.543,-9.54c0.72,-0.411 1.412,-0.848 2.077,-1.312c7.412,-4.882 10.396,-9.629 9.221,-14.124c-0.847,-3.503 -4.878,-6.508 -12.293,-8.84c-0.68,-0.221 -1.412,-0.432 -2.198,-0.635c-0.34,-3.261 -0.616,-6.387 -0.829,-9.379c-0.002,-0.033 -0.007,-0.066 -0.014,-0.098c-0.001,-0.012 -0.052,-0.501 -0.112,-1.217l-0,0c2.426,-0.661 4.883,-1.121 7.372,-1.382c0.005,-0.001 0.01,-0.001 0.015,-0.002c1.086,-0.126 1.95,-0.436 2.606,-0.901c0.396,-0.28 0.616,-0.596 0.7,-0.929c0.112,-0.447 -0.019,-0.964 -0.535,-1.518c-0.612,-0.657 -1.577,-1.186 -2.932,-1.546c-1.293,-0.345 -2.472,-0.442 -3.533,-0.315c-1.397,0.165 -2.801,0.374 -4.211,0.627c-0.104,-1.786 -0.231,-3.584 -0.383,-5.395c-0,-0.039 -0.009,-0.099 -0.027,-0.163l-0.082,-0.293c-0.012,-0.037 -0.028,-0.075 -0.047,-0.111c-0.476,-0.887 -1.732,-1.54 -3.935,-1.708c-0.003,-0 -0.006,-0.001 -0.008,-0.001c-1.873,-0.131 -3.01,0.255 -3.52,0.838c-0.275,0.315 -0.42,0.707 -0.383,1.186c0.132,2.266 0.303,4.766 0.513,7.5c-0.402,0.11 -0.779,0.226 -1.131,0.347c-0.887,0.294 -1.603,0.547 -2.15,0.759c-0.54,0.21 -1.239,0.494 -2.097,0.852c-0.901,0.376 -1.648,0.74 -2.243,1.088c-0.6,0.352 -1.211,0.779 -1.832,1.283c-0.646,0.525 -1.156,1.055 -1.537,1.586c-0.002,0.004 -0.005,0.007 -0.007,0.01c-0.917,1.325 -1.276,2.575 -1.122,3.743c0.156,1.185 0.668,2.201 1.519,3.052c0.794,0.793 1.877,1.553 3.257,2.271c1.327,0.691 2.586,1.247 3.778,1.671c1.179,0.42 2.454,0.8 3.823,1.139c0.373,0.106 0.86,0.234 1.448,0.383c0.667,6.042 1.408,11.967 2.224,17.775c-0.711,0.422 -1.436,0.786 -2.178,1.093c-0.013,0.005 -0.025,0.011 -0.038,0.017c-1.679,0.767 -3.286,1.286 -4.826,1.549c-0.203,0.035 -0.335,0.057 -0.335,0.057l0.11,0.814Zm13.367,-18.787c0.275,0.109 0.554,0.235 0.839,0.379l0.56,0.129c-0,0 -0.558,-0.128 -0.558,-0.128l0.329,0.163c0.207,0.142 0.482,0.335 0.824,0.578l0.249,0.139c0.088,0.072 0.176,0.149 0.266,0.235c0.002,0.002 0.382,0.506 0.382,0.506l0.21,0.259c0.014,0.029 0.032,0.058 0.051,0.086c0.406,0.585 0.605,1.225 0.601,1.918c-0,0.004 -0,0.008 -0,0.011c0.019,1.744 -0.84,3.531 -2.528,5.377c-0.426,-3.165 -0.834,-6.382 -1.225,-9.652Zm-8.924,-8.139c-1.188,-0.383 -2.026,-0.773 -2.479,-1.216c-0.007,-0.007 -0.014,-0.013 -0.021,-0.02c-0.756,-0.69 -0.707,-1.539 -0.028,-2.542c0,-0.001 0,-0.001 0.001,-0.002c0.41,-0.61 1.089,-1.176 2.024,-1.711l0.503,5.491Z" style="fill:#fff;fill-rule:nonzero;"/><path d="M46.249,27.211c-0.82,0.319 -1.327,1.183 -1.166,2.081c0.183,1.021 1.16,1.7 2.181,1.517c-0,0 0.527,-0.047 1.468,-0.123c0.015,0.23 0.024,0.474 0.029,0.729c-0.558,0.043 -0.864,0.069 -0.864,0.069c-0.75,0.011 -1.35,0.629 -1.339,1.379c0.007,0.437 0.22,0.823 0.545,1.067c-0.158,0.196 -0.263,0.438 -0.291,0.706c-0.079,0.746 0.462,1.416 1.208,1.495c-0,0 0.201,0.035 0.575,0.098c-0.036,0.468 -0.072,0.895 -0.106,1.258c-0.825,0.119 -1.288,0.191 -1.288,0.191c-1.034,0.067 -1.82,0.961 -1.754,1.995c0.02,0.313 0.116,0.603 0.268,0.853c-0.606,0.38 -1.34,0.798 -2.223,1.249c-1.736,0.885 -3.984,1.833 -6.882,2.8c-6.965,2.325 -15.771,8.42 -21.67,17.453c-4.799,7.349 -7.651,16.623 -6.169,27.345c1.398,10.098 7.128,18.379 15.434,24.695c10.511,7.992 25.239,12.766 40.136,14.111c12.423,1.091 24.62,-1.912 34.562,-7.464c11.755,-6.564 20.295,-16.711 22.802,-27.706c2.092,-9.335 0.674,-16.82 -2.607,-23.035c-4.929,-9.337 -14.317,-15.729 -22.31,-21.233c-3.373,-2.323 -6.463,-4.463 -8.642,-6.699c-0.662,-0.68 -1.248,-1.346 -1.683,-2.033c0.116,-0.058 0.227,-0.129 0.332,-0.213c0.809,-0.648 0.941,-1.831 0.293,-2.64c-0.054,-0.079 -0.172,-0.185 -0.356,-0.301c0.04,-0.233 0.018,-0.48 -0.074,-0.716c-0.204,-0.525 -0.701,-0.852 -1.232,-0.866c-0.045,-0.339 -0.093,-0.685 -0.14,-1.035c0.316,0.005 0.579,0.016 0.784,0.032c0.744,0.096 1.425,-0.431 1.521,-1.175c0.095,-0.744 -0.431,-1.426 -1.175,-1.521c-0.333,-0.058 -0.817,-0.121 -1.429,-0.186c-0.042,-0.617 -0.097,-1.209 0.016,-1.704c0.426,0.087 0.838,0.186 1.234,0.297c0.979,0.342 2.051,-0.174 2.393,-1.153c0.342,-0.978 -0.175,-2.051 -1.153,-2.393c-0.223,-0.093 -0.45,-0.184 -0.682,-0.272c1.019,-1.804 2.367,-3.983 3.877,-5.911c1.331,-1.7 2.707,-3.28 4.162,-3.843c3.255,-1.26 4.81,-2.409 5.598,-3.425c1.247,-1.606 1.369,-3.239 0.948,-5.737c-0.255,-1.604 -1.603,-2.807 -3.225,-2.88l-33.093,-0.974c-2.56,-0.035 -4.433,0.096 -5.889,0.297c-1.559,0.216 -2.657,0.504 -3.595,0.769c-1.129,0.319 -1.903,0.621 -3.564,0.373c-1.588,-0.238 -2.938,-1.148 -4.52,-1.637c-0.946,-0.292 -1.942,-0.495 -3.033,-0.509c-0.717,-0.01 -1.37,0.103 -1.977,0.317c-0.594,0.21 -1.145,0.504 -1.67,0.844c-0.233,0.151 -0.462,0.31 -0.693,0.459c-0.107,0.069 -0.164,0.224 -0.297,0.225c-1.511,0.014 -2.736,-0.964 -3.937,-1.304c-0.731,-0.206 -1.454,-0.311 -2.174,-0.26c-2.383,0.167 -4.265,0.453 -5.384,0.835c-0.984,0.335 -1.651,0.824 -2.084,1.323c-0.438,0.409 -1.124,1.29 -1.173,2.794c-0.031,0.92 0.16,2.309 1.5,4.126c1.152,1.563 3.305,3.682 6.393,6.136c2.708,2.152 6.155,4.601 10.255,7.218c1.083,0.69 2.12,1.239 3.029,1.812Zm32.361,13.2c-1.061,0.089 -2.208,0.188 -3.417,0.289c-2.669,0.221 -5.614,0.512 -8.575,0.666c-2.615,0.135 -5.233,0.165 -7.656,0.18c-2.86,0.018 -4.243,0.131 -6.235,0.101c-0.8,0.921 -2.556,2.416 -4.83,3.797c-2.025,1.231 -5.681,2.769 -9.701,4.224c-6.066,2.196 -13.625,7.254 -18.618,15.311c-3.955,6.381 -6.258,14.353 -4.787,23.493c1.349,8.389 6.386,15.105 13.41,20.232c9.698,7.079 19.205,10.618 32.77,11.608c10.868,0.82 24.209,-1.713 32.853,-6.643c9.604,-5.478 16.825,-13.624 18.831,-22.665c1.607,-7.115 0.62,-12.825 -1.854,-17.579c-5.146,-9.886 -14.875,-15.621 -22.445,-21.301c-5.022,-3.767 -8.623,-7.607 -9.746,-11.713Zm-0.712,-5.983c-1.002,0.036 -2.059,0.073 -3.154,0.109c-1.346,0.045 -2.748,0.097 -4.175,0.138c0.389,0.034 0.777,0.068 1.161,0.101c2.234,0.194 4.369,0.389 6.271,0.53c-0.034,-0.289 -0.069,-0.583 -0.103,-0.878Zm-0.152,-5.327c-0.932,-0.001 -1.886,0.015 -2.854,0.042c-1.797,0.051 -3.633,0.17 -5.473,0.272c-1.854,0.104 -3.706,0.216 -5.506,0.316c-2.344,0.131 -4.596,0.237 -6.65,0.359c-1.422,0.085 -2.746,0.172 -3.936,0.254c0.016,0.243 0.026,0.494 0.032,0.751c1.743,-0.109 3.806,-0.224 6.04,-0.323c2.422,-0.108 5.044,-0.203 7.674,-0.209c2.619,-0.005 5.242,0.087 7.682,0.182c0.996,0.038 1.961,0.081 2.882,0.127c0,-0.064 0.001,-0.128 0.002,-0.191c0.008,-0.543 0.043,-1.072 0.107,-1.58Zm1.763,-4.717c1.23,-2.241 3.264,-5.652 5.61,-8.551c1.665,-2.058 3.511,-3.84 5.341,-4.988l-25.551,-1.232c-6.684,-0.236 -8.083,0.956 -10.283,1.21c-0.976,0.113 -2.066,0.119 -3.552,-0.135c-1.876,-0.322 -3.493,-1.333 -5.357,-1.952c-0.434,-0.145 -0.891,-0.264 -1.395,-0.282c-0.399,-0.014 -0.626,0.342 -0.924,0.531c-0.505,0.321 -1.015,0.618 -1.558,0.826c-0.631,0.242 -1.296,0.393 -2.023,0.384c-0.656,-0.008 -1.285,-0.094 -1.891,-0.248c-0.981,-0.249 -1.896,-0.665 -2.764,-1.05c-0.397,-0.175 -0.741,-0.428 -1.121,-0.409c-1.178,0.057 -2.415,0.222 -3.217,0.345l0.065,0.099c0.944,1.339 2.762,3.127 5.322,5.254c2.55,2.119 6.07,3.938 9.943,6.533c1.97,1.321 3.514,2.855 4.801,4.115c0.334,0.328 0.641,0.673 0.916,1.044c1.892,-0.394 4.193,-0.829 6.738,-1.215c2.534,-0.384 5.306,-0.726 8.143,-0.87c2.753,-0.139 5.561,-0.079 8.259,0.11c1.546,0.109 3.054,0.268 4.498,0.481Zm15.26,-15.558l0.074,0.231l-0.179,0.08c0.016,-0.101 0.055,-0.215 0.105,-0.311Zm0.365,-0.049l-0.177,-0.158c0.037,-0.015 0.076,-0.007 0.111,0.028c0.044,0.045 0.066,0.088 0.066,0.13Z" style="fill:#fff;"/></g></svg>