<?xml version="1.0" encoding="UTF-8" standalone="no"?><!DOCTYPE svg PUBLIC "-//W3C//DTD SVG 1.1//EN" "http://www.w3.org/Graphics/SVG/1.1/DTD/svg11.dtd"><svg width="100%" height="100%" viewBox="0 0 132 132" version="1.1" xmlns="http://www.w3.org/2000/svg" xmlns:xlink="http://www.w3.org/1999/xlink" xml:space="preserve" xmlns:serif="http://www.serif.com/" style="fill-rule:evenodd;clip-rule:evenodd;stroke-linejoin:round;stroke-miterlimit:2;"><rect id="ICONS-SVG" serif:id="ICONS SVG" x="0" y="0" width="131.067" height="131.086" style="fill:none;"/><g id="icon_calculator"><path d="M104.884,7.053l0.043,0.002c-12.889,-1.555 -25.354,-2.432 -38.673,-2.704c-11.907,-0.243 -24.48,0.022 -38.642,0.671c-2.968,0.139 -5.536,1.613 -7.247,3.614c-1.442,1.686 -2.223,3.844 -2.265,6.236c-0.256,17.652 -0.683,38.403 -1.494,59.01c-0.525,13.363 -1.176,26.665 -2.261,38.999c-0.229,2.87 0.659,5.552 2.402,7.668c1.92,2.333 4.946,3.961 8.247,4.059c17.596,1.54 34.209,2.45 49.218,2.163c12.384,-0.237 23.689,-1.276 33.596,-3.219c2.606,-0.519 4.904,-1.779 6.396,-3.521c1.506,-1.759 2.463,-3.909 2.42,-6.469c0.312,-12.969 0.055,-26.151 -0.543,-39.551c-0.86,-19.256 -2.385,-38.937 -3.609,-59.08c-0.034,-2.205 -1.017,-4.183 -2.491,-5.647c-1.304,-1.294 -3.087,-2.09 -5.097,-2.231Zm1.4,8.497c-0.067,-1.698 -1.441,-3.076 -3.218,-3.076c-24.172,-2.32 -45.414,-2.683 -75.016,-0.677c-1.773,0.12 -3.218,1.377 -3.218,3.075c0,29.289 -0.099,67.107 -2.685,98.677c-0.139,1.693 1.44,3.076 3.218,3.076c31.474,3.052 59.735,3.87 81.252,-0c1.751,-0.315 3.218,-1.377 3.218,-3.076c1.37,-31.497 -2.206,-63.907 -3.551,-97.999Z" style="fill:#fff;"/><path d="M99.918,25.915c-0.08,-0.699 -0.483,-1.594 -1.505,-2.331c-0.577,-0.415 -2.12,-0.912 -2.991,-1.14c-5.706,-1.478 -13.411,-2.247 -22.877,-2.415c-9.515,-0.169 -20.824,0.312 -33.668,1.068c-1.855,0.132 -3.496,0.644 -4.153,1.027c-1.992,1.16 -2.5,2.901 -2.535,4.397c-0.001,0.073 -0.095,17.896 -0.095,17.896c-0.058,1.525 0.375,3.346 2.325,4.677c0.742,0.507 2.642,1.258 4.936,1.232c12.021,0.05 23.162,0.058 33.23,-0.237c8.156,-0.24 15.596,-0.681 22.307,-1.227c1.783,-0.149 3.291,-0.627 3.873,-1.031c1.336,-0.926 1.816,-2.088 1.841,-3.155c0.373,-3.033 0.519,-6.122 0.394,-9.268c-0.123,-3.115 -0.478,-6.277 -1.082,-9.493l0,0Zm-3.981,0.702c-0.048,-0.311 -31.65,-2.755 -56.655,-0.6c-1.178,0.102 -2.232,0.26 -2.231,0.572c-0.104,6.712 0.305,12.591 0.054,18.068c-0.014,0.312 1.002,0.562 2.235,0.558c21.843,0.491 39.199,0.362 54.128,-0.395c1.214,-0.062 2.888,0.031 2.887,-0.281c0.934,-5.785 0.534,-11.666 -0.418,-17.922Z" style="fill:#fff;"/><path d="M51.355,66.473c0.637,-1.267 0.074,-2.28 -0.009,-3.609c-0.022,-0.352 -0.257,-0.564 -0.342,-0.904c-0.107,-0.426 -0.386,-0.691 -0.621,-1.057c-1.095,-1.706 -3.298,-2.342 -5.445,-2.466c-0,-0 -6.942,0.157 -6.942,0.157c-2.116,0.061 -4.047,0.902 -5.392,2.364c-1.331,1.447 -2.213,3.375 -2.145,5.515c0,-0 0.227,7.1 0.227,7.1c0.065,2.051 0.845,3.921 2.204,5.222c1.342,1.285 3.125,2.138 5.106,2.07c-0,0 6.942,-0.261 6.942,-0.261c1.883,-0.071 3.599,-0.822 4.789,-2.132c1.173,-1.291 1.952,-3.001 1.884,-4.899c0,-0 -0.256,-7.1 -0.256,-7.1Z" style="fill:#fff;"/><path d="M77.309,66.663c0.203,-1.857 -0.605,-3.508 -1.665,-4.861c-1.107,-1.415 -2.854,-2.107 -4.753,-2.319c0,-0 -6.942,-0.677 -6.942,-0.677c-2.151,-0.172 -4.07,0.808 -5.583,2.147c-1.549,1.373 -2.347,3.456 -2.491,5.71c-0,0 -0.211,7.101 -0.211,7.101c0.054,2.329 0.926,4.472 2.472,5.945c1.531,1.457 3.562,2.44 5.813,2.329c-0,-0 6.942,-0.494 6.942,-0.494c2.069,-0.179 3.981,-0.934 5.215,-2.446c1.195,-1.465 2.092,-3.287 1.901,-5.334c-0,-0 -0.698,-7.101 -0.698,-7.101Z" style="fill:#fff;"/><path d="M51.551,95.477c0.203,-1.857 -0.605,-3.508 -1.664,-4.861c-1.108,-1.415 -2.855,-2.107 -4.754,-2.319c0,-0 -6.942,-0.677 -6.942,-0.677c-2.151,-0.172 -4.07,0.808 -5.582,2.147c-1.55,1.373 -2.348,3.456 -2.492,5.71c-0,0 -0.21,7.101 -0.21,7.101c0.053,2.329 0.925,4.472 2.472,5.945c1.53,1.457 3.561,2.44 5.812,2.329c0,-0 6.942,-0.494 6.942,-0.494c2.069,-0.179 3.981,-0.934 5.215,-2.446c1.195,-1.465 2.092,-3.287 1.901,-5.334c-0,-0 -0.698,-7.101 -0.698,-7.101Z" style="fill:#fff;"/><path d="M77.532,97.538c0.637,-1.267 0.074,-2.28 -0.009,-3.609c-0.023,-0.352 -0.257,-0.564 -0.342,-0.904c-0.107,-0.425 -0.386,-0.691 -0.621,-1.057c-1.095,-1.706 -3.298,-2.341 -5.446,-2.466c0,0 -6.942,0.157 -6.942,0.157c-2.115,0.062 -4.046,0.902 -5.391,2.364c-1.331,1.447 -2.213,3.375 -2.145,5.515c-0,-0 0.227,7.1 0.227,7.1c0.065,2.051 0.845,3.921 2.204,5.222c1.342,1.285 3.125,2.138 5.105,2.07c0,0 6.942,-0.261 6.942,-0.261c1.884,-0.071 3.6,-0.822 4.79,-2.132c1.172,-1.291 1.952,-3.001 1.884,-4.899c0,0 -0.256,-7.1 -0.256,-7.1Z" style="fill:#fff;"/><path d="M102.44,68.09c0.091,-1.912 -0.6,-3.629 -1.606,-4.953c-1.029,-1.355 -2.547,-2.105 -4.21,-2.215c0,0 -6.29,-0.396 -6.29,-0.396c-1.792,-0.104 -3.399,0.8 -4.632,2.115c-1.256,1.339 -1.951,3.301 -2.041,5.449c-0,-0 -0.458,10.812 -0.671,20.194c-0.162,7.153 -0.163,13.463 -0.163,13.463c0.024,2.432 0.848,4.643 2.22,6.219c1.367,1.571 3.227,2.572 5.287,2.543c-0,0 6.29,-0.183 6.29,-0.183c2.003,-0.07 3.834,-0.979 5.105,-2.575c1.256,-1.578 2.097,-3.675 2.025,-6.004c-0,-0 -1.314,-33.657 -1.314,-33.657Z" style="fill:#fff;"/></g></svg>