<?xml version="1.0" encoding="UTF-8" standalone="no"?><!DOCTYPE svg PUBLIC "-//W3C//DTD SVG 1.1//EN" "http://www.w3.org/Graphics/SVG/1.1/DTD/svg11.dtd"><svg width="100%" height="100%" viewBox="0 0 132 132" version="1.1" xmlns="http://www.w3.org/2000/svg" xmlns:xlink="http://www.w3.org/1999/xlink" xml:space="preserve" xmlns:serif="http://www.serif.com/" style="fill-rule:evenodd;clip-rule:evenodd;stroke-linejoin:round;stroke-miterlimit:2;"><rect id="ICONS-SVG" serif:id="ICONS SVG" x="0" y="0" width="131.067" height="131.086" style="fill:none;"/><g id="icon_camera"><path d="M99.419,19.052c0.322,0.042 0.521,0.368 0.579,0.441c0.415,0.975 0.499,3.369 0.682,4.833c0.379,3.037 0.46,5.978 0.46,5.978c-0.064,1.765 1.317,3.25 3.082,3.315c1.765,0.064 3.25,-1.316 3.315,-3.081c-0,-0 0.47,-5.32 0.086,-9.516c-0.191,-2.093 -0.725,-3.919 -1.347,-5.095c-0.762,-1.431 -2.242,-2.536 -4.298,-3.237c-2.913,-0.995 -7.732,-0.875 -11.395,-1.014c-3.315,0.046 -7.424,0.224 -10.498,1.072c-2.571,0.709 -4.57,1.857 -5.654,3.288c-1.303,1.766 -2.049,4.184 -2.074,6.749c-0.04,4.009 1.223,8.187 1.223,8.187c0.431,1.713 2.171,2.754 3.884,2.323c1.713,-0.431 2.754,-2.171 2.323,-3.884c-0,-0 -0.412,-2.53 -0.262,-5.185c0.068,-1.2 0.227,-3.494 0.926,-4.253c0.126,-0.141 2.614,-0.502 3.759,-0.601c2.082,-0.181 4.352,-0.191 6.296,-0.142c0.41,-0.005 0.836,-0.015 1.272,-0.028c1.773,-0.051 3.723,-0.138 5.49,-0.09c0.727,0.02 1.588,-0.133 2.151,-0.06Z" style="fill:#fff;"/><path d="M39.166,25.241c-0.028,-0 -0.056,-0.001 -0.084,-0c0,-0 -14.768,0.147 -24.513,7.739c-4.632,3.608 -8.219,8.771 -8.984,16.157c-1.155,11.146 -4.352,34.192 -1.866,49.947c1.767,11.196 6.747,18.788 15.038,19.591c5.535,0.536 12.72,0.728 20.425,0.735c17.379,0.014 37.457,-0.911 46.648,-0.741c9.187,0.175 22.857,-1.228 31.542,-5.736c5.882,-3.052 9.625,-7.521 9.979,-13.272c0.468,-7.575 0.971,-26.683 0.916,-41.105c-0.036,-9.768 -0.563,-17.548 -1.222,-19.12c-1.759,-4.197 -3.927,-7.511 -7.789,-9.867c-3.528,-2.153 -8.675,-3.529 -16.91,-3.533l-63.18,-0.795Zm81.626,16.192c0.041,0.314 0.252,1.947 0.336,3.367c0.255,4.301 -0.527,12.247 -0.559,19.587c-0.058,13.172 -1.498,28.251 -1.892,34.743c-0.237,3.888 -4.16,5.936 -8.727,7.575c-7.427,2.667 -17.118,3.425 -23.956,3.297c-9.221,-0.177 -29.365,0.731 -46.802,0.703c-7.39,-0.011 -14.283,-0.19 -19.592,-0.709c-2.336,-0.228 -3.822,-1.883 -4.942,-4.149c-1.839,-3.722 -2.649,-8.913 -2.973,-14.649c-0.811,-14.374 -0.365,-31.791 0.6,-40.975c0.626,-5.957 6.276,-9.75 10.366,-12.013c7.068,-3.91 15.643,-4.094 16.409,-4.103l0.029,-0l63.257,0.699c4.807,-0.003 10.128,-0.741 12.658,0.258c3.221,1.271 4.586,3.545 5.788,6.369Z" style="fill:#fff;"/><path d="M101.655,43.026c-1.02,-0.082 -6.863,-0.465 -10.334,1.27c-2.132,1.065 -3.467,2.829 -3.604,5.307c-0.131,2.637 -0.577,4.694 -0.345,6.233c0.247,1.636 1.003,2.92 2.574,3.925c1.87,1.176 4.806,1.951 8.112,2.176c3.746,0.254 7.978,-0.135 11.348,-0.884c0.76,-0.173 2.165,-0.957 2.563,-3.049c0.474,-2.485 0.18,-8.597 -0.473,-11.043c-0.402,-1.493 -1.514,-2.673 -3.28,-3.302c-1.811,-0.645 -4.432,-0.748 -6.561,-0.633Zm5.067,5.293c0.343,1.781 0.406,5.461 0.131,7.651c-2.119,0.3 -4.488,0.415 -6.749,0.348c-2.865,-0.086 -5.567,-0.401 -7.139,-1.385l0.134,-5.186c-0.004,-1.126 1.315,-1.325 2.472,-1.619c2.734,-0.696 5.854,-0.554 5.854,-0.554c0.09,0.008 0.18,0.01 0.27,0.007c1.231,-0.014 2.692,0.042 3.925,0.314c0.386,0.085 0.889,0.319 1.102,0.424Z" style="fill:#fff;"/><path d="M55.449,43.864c-1.615,-0.323 -11.247,-1.973 -19.84,2.654c-5.142,2.769 -9.898,7.754 -12.45,16.486c-3.281,11.647 -1.489,20.925 3.149,27.364c5.419,7.52 14.903,11.368 25.8,10.615c10.499,-0.845 19.757,-5.419 24.764,-13.057c4.475,-6.825 5.823,-16.17 1.176,-27.707c-2.21,-5.456 -5.581,-9.121 -9.098,-11.553c-5.917,-4.091 -12.161,-4.713 -13.501,-4.802Zm-1.07,6.315c0.164,0.035 0.331,0.056 0.498,0.064c0,-0 5.218,0.425 10.028,4.036c2.468,1.852 4.786,4.595 6.231,8.59c3.139,8.621 2.361,15.497 -1.093,20.428c-3.836,5.477 -10.829,8.357 -18.53,8.764c-7.51,0.482 -14.09,-1.9 -17.887,-7.035c-3.429,-4.638 -4.546,-11.345 -2.41,-19.88c1.502,-6.257 4.573,-10.013 8.1,-12.162c6.911,-4.212 15.063,-2.805 15.063,-2.805Z" style="fill:#fff;"/><path d="M57.194,57.138c0,-0 -2.102,-0.509 -5.096,-0.428c-1.598,0.043 -3.369,0.316 -5.198,0.941c-2.218,0.759 -4.441,2.097 -6.18,4.195c-1.116,1.347 -2.008,3.038 -2.535,5.046c-0.389,1.48 -0.634,3.102 -0.574,4.945c0.068,2.075 0.399,4.308 1.144,6.889c0.087,0.737 0.757,1.265 1.494,1.177c0.738,-0.088 1.265,-0.758 1.177,-1.495c0.116,-2.844 0.654,-5.097 1.295,-7.08c0.289,-0.894 0.668,-1.66 1.02,-2.404c0.561,-1.188 1.281,-2.119 1.987,-2.973c0.66,-0.797 1.306,-1.522 2.039,-2.109c0.873,-0.698 1.719,-1.325 2.618,-1.795c3.412,-1.783 6.597,-2.227 6.597,-2.227c0.741,0.058 1.389,-0.495 1.447,-1.235c0.059,-0.74 -0.495,-1.389 -1.235,-1.447Z" style="fill:#fff;"/></g></svg>