<?xml version="1.0" encoding="UTF-8" standalone="no"?><!DOCTYPE svg PUBLIC "-//W3C//DTD SVG 1.1//EN" "http://www.w3.org/Graphics/SVG/1.1/DTD/svg11.dtd"><svg width="100%" height="100%" viewBox="0 0 132 132" version="1.1" xmlns="http://www.w3.org/2000/svg" xmlns:xlink="http://www.w3.org/1999/xlink" xml:space="preserve" xmlns:serif="http://www.serif.com/" style="fill-rule:evenodd;clip-rule:evenodd;stroke-linejoin:round;stroke-miterlimit:2;"><rect id="ICONS-SVG" serif:id="ICONS SVG" x="0" y="0" width="131.067" height="131.086" style="fill:none;"/><path id="icon_contacts" d="M32.743,29.128c-0.796,-0.575 -1.484,-1.22 -2.085,-1.956c-1.383,-1.692 -2.306,-3.891 -2.934,-6.938c-0.11,-0.531 -0.46,-5.525 4.371,-6.47c1.599,-0.313 3.949,-0.126 7.347,1.197c-0.004,-0.78 0.008,-1.664 0.057,-2.416c0.08,-1.254 0.294,-2.501 0.716,-3.516c0.437,-1.051 1.101,-1.878 1.985,-2.397c0.592,-0.346 1.363,-0.479 2.278,-0.271c0.75,0.17 1.68,0.611 2.658,1.228c1.448,0.913 3.066,2.236 4.309,3.203c0.58,-2.03 1.553,-4.832 3.256,-6.696c1.697,-1.857 4.033,-2.942 7.318,-1.983c1.266,0.371 2.307,1.773 2.695,3.826c0.258,1.36 0.301,3.02 0.284,4.42c1.184,-0.822 2.647,-1.864 4.143,-2.662c2.239,-1.193 4.564,-1.801 6.39,-1.18c1.357,0.462 2.05,1.495 2.171,2.95c0.113,1.352 -0.44,3.251 -0.969,4.916c1.498,-0.827 3.395,-1.872 5.24,-2.739c2.663,-1.252 5.268,-2.043 6.717,-1.742c1.929,0.401 2.692,1.764 2.641,3.6c-0.025,0.92 -0.316,1.997 -0.69,3.019c0.609,-0.286 1.23,-0.547 1.809,-0.738c1.301,-0.428 2.461,-0.45 3.158,-0.094c1.288,0.658 1.782,1.642 1.829,2.747c0.032,0.742 -0.172,1.567 -0.511,2.366c0.415,-0.078 0.821,-0.111 1.188,-0.074c0.852,0.084 1.555,0.462 1.989,1.248c0.783,1.421 0.272,3.198 -1.213,4.836c-1.173,1.295 -2.914,2.544 -4.512,3.45c1.138,0.818 2.278,1.657 3.43,2.507c0.731,-0.152 1.495,-0.244 2.284,-0.256c1.267,-0.019 2.596,0.118 3.975,0.485c1.177,0.313 2.384,0.736 3.618,1.383c1.506,0.79 3.014,1.8 4.59,3.151c0.482,0.307 0.624,0.949 0.316,1.431c-0.307,0.482 -0.949,0.624 -1.431,0.317c-2.403,-1.111 -4.553,-1.607 -6.535,-1.887c-0.44,-0.062 -0.867,-0.101 -1.283,-0.122c4.275,3.828 8.106,8.134 11.267,12.739c3.181,1.596 5.785,4.12 7.944,6.95c3.566,4.675 4.187,10.763 3.285,17.037c-0.388,2.151 -2.658,11.628 -3.387,14.443c-3.997,14.741 -14.119,26.606 -26.857,33.743c-12.969,7.266 -28.742,9.2 -43.666,4.834c-14.276,-4.756 -26.578,-14.309 -33.861,-26.525c-2.73,-4.58 -4.811,-9.486 -6.115,-14.577l-0.015,-0.015c-2.1,-1.998 -3.784,-4.339 -4.897,-6.98c-2.47,-5.861 -3.181,-12.625 -0.339,-18.864c2.541,-4.927 5.862,-9.122 10.382,-11.309c1.072,-2.054 2.23,-4.036 3.467,-5.932c-0.44,0.022 -0.884,0.059 -1.333,0.114c-1.674,0.206 -3.362,0.491 -5.111,1.152c-0.501,0.277 -1.132,0.096 -1.409,-0.405c-0.277,-0.5 -0.096,-1.132 0.405,-1.409c1.518,-1.16 3.054,-2.021 4.654,-2.701c1.161,-0.493 2.325,-0.824 3.498,-1.079c0.898,-0.196 1.789,-0.32 2.673,-0.384c2.66,-3.377 5.61,-6.399 8.816,-8.975Zm59.068,6.434c-5.585,-4.186 -12.121,-6.051 -18.304,-7.987c-16.45,-5.151 -30.827,-0.215 -40.982,11.975c0.2,0.077 0.396,0.155 0.59,0.236c4.697,1.944 7.566,4.53 7.566,4.53c0.478,0.316 0.609,0.959 0.294,1.437c-0.315,0.477 -0.959,0.609 -1.436,0.293c-0,0 -3.865,-1.706 -9.183,-2.546c-0.245,-0.039 -0.494,-0.075 -0.745,-0.109c-0.71,1.027 -1.393,2.088 -2.044,3.179c2.618,0.059 5.226,0.646 7.73,2.014l-0,-0c5.762,0.722 10.051,4.306 13.318,8.589c3.566,4.675 4.187,10.763 3.285,17.037c-1.201,6.651 -5.613,11.663 -10.857,15.1c-4.53,2.969 -12.377,3.599 -18.06,2.887c1.402,10.259 17.683,23.175 30.598,27.219c22.542,7.059 56.729,-7.848 60.893,-29.443l-2.293,0.643c-4.943,2.178 -10.765,2.338 -16.485,0.989c-6.645,-2.393 -12.173,-6.861 -14.718,-12.899c-2.47,-5.86 -3.18,-12.624 -0.338,-18.863c2.949,-5.72 6.95,-10.453 12.657,-12.203c3.26,-0.999 6.671,-1.563 10.031,-1.153c-2.373,-2.851 -5.011,-5.526 -7.839,-7.966c-1.033,0.421 -1.983,0.882 -2.836,1.41c-3.212,1.992 -5.133,4.351 -5.133,4.351c-0.285,0.495 -0.92,0.666 -1.415,0.38c-0.496,-0.285 -0.666,-0.92 -0.381,-1.416c0,0 1.382,-3.318 4.544,-6.374c0.472,-0.456 0.987,-0.895 1.543,-1.31Zm-24.543,57.545c-3.015,-0.099 -5.174,1.653 -6.635,4.415c-1.401,2.648 -1.854,6.454 -1.584,10.617c0.215,2.187 1.521,4.158 3.369,5.417c1.74,1.186 3.988,1.653 6.154,1.193c1.713,-0.417 3.488,-1.494 4.727,-3.074c1.195,-1.524 1.988,-3.38 1.972,-5.179c-0.164,-5.574 -1.009,-9.17 -2.522,-11.111c-1.402,-1.798 -3.167,-2.638 -5.481,-2.278l-0,-0Zm0.208,3.182c1.242,0.028 1.894,0.83 2.283,2.21c0.495,1.756 0.433,4.284 0.012,7.741c-0.061,0.597 -0.521,1.108 -0.963,1.579c-0.423,0.45 -0.958,0.792 -1.493,0.884c-0.532,0.108 -1.062,-0.069 -1.5,-0.344c-0.42,-0.263 -0.867,-0.562 -0.956,-1.041c-0.672,-3.064 -0.836,-5.927 -0.143,-8.071c0.488,-1.509 1.249,-2.709 2.76,-2.958l0,-0Zm-9,-9.076c0.042,0.055 0.173,0.229 0.248,0.334c0.184,0.26 0.383,0.517 0.606,0.735c0.213,0.207 0.459,0.366 0.728,0.489c1.753,0.798 3.442,1.114 5.156,1.12c2.334,0.008 4.718,-0.616 7.418,-1.489c0.527,-0.172 0.894,-0.495 1.194,-0.887c0.115,-0.149 0.282,-0.43 0.382,-0.604c0.099,0.015 0.214,0.042 0.292,0.04c0.337,-0.008 0.674,-0.033 0.979,-0.091c0.355,-0.069 0.675,-0.198 0.959,-0.368c0.627,-0.392 0.925,-1.149 0.733,-1.864c-0,-0 -0.798,-3.277 -2.201,-6.976c-0.873,-2.302 -1.986,-4.759 -3.238,-6.723c-0.857,-1.343 -1.794,-2.461 -2.75,-3.212c-1.092,-0.858 -2.234,-1.29 -3.372,-1.237c-0.944,0.05 -1.854,0.38 -2.694,1.013c-1.154,0.871 -2.234,2.331 -3.126,4.145c-2.787,5.666 -4.125,14.762 -4.125,14.762c-0.057,0.324 0.032,0.656 0.243,0.908c0.212,0.252 0.524,0.398 0.853,0.398c-0,0 0.545,-0.178 1.191,-0.372c0.174,-0.053 0.369,-0.131 0.524,-0.121Zm15.667,-0.31c-0.081,-0.008 -0.138,0.004 -0.126,0.068c0.005,0.032 0.057,-0.03 0.084,-0.042c0.014,-0.007 0.028,-0.015 0.042,-0.026Zm-50.502,-2.368c-3.909,-1.13 -10.094,-6.424 -10.498,-14.703c-0.468,-9.578 7.003,-14.278 7.609,-14.715c3.677,-2.651 8.515,-3.599 13.17,-2.142c7.843,2.456 13.826,10.237 11.267,19.54c-2.162,7.857 -9.978,15.367 -21.548,12.02Zm85.079,-31.475c5.092,1.939 7.746,5.575 8.968,9.689c0.814,2.74 1.268,5.408 0.184,9.679c-2.374,9.353 -11.46,13.769 -19.289,11.267c-11.609,-3.712 -13.096,-13.329 -10.639,-21.172c2.456,-7.843 12.073,-12.217 19.916,-9.761c0.292,0.092 0.578,0.191 0.86,0.298Zm-72.81,9.586c2.908,0 5.269,2.361 5.269,5.269c-0,2.908 -2.361,5.269 -5.269,5.269c-2.908,-0 -5.269,-2.361 -5.269,-5.269c0,-2.908 2.361,-5.269 5.269,-5.269Zm73.087,-1.16c2.908,0 5.269,2.361 5.269,5.269c0,2.908 -2.361,5.269 -5.269,5.269c-2.908,-0 -5.268,-2.361 -5.268,-5.269c-0,-2.908 2.36,-5.269 5.268,-5.269Z" style="fill:#fff;"/></svg>