<?xml version="1.0" encoding="UTF-8" standalone="no"?><!DOCTYPE svg PUBLIC "-//W3C//DTD SVG 1.1//EN" "http://www.w3.org/Graphics/SVG/1.1/DTD/svg11.dtd"><svg width="100%" height="100%" viewBox="0 0 132 132" version="1.1" xmlns="http://www.w3.org/2000/svg" xmlns:xlink="http://www.w3.org/1999/xlink" xml:space="preserve" xmlns:serif="http://www.serif.com/" style="fill-rule:evenodd;clip-rule:evenodd;stroke-linejoin:round;stroke-miterlimit:2;"><rect id="ICONS-SVG" serif:id="ICONS SVG" x="0" y="0" width="131.067" height="131.086" style="fill:none;"/><g id="icon_phone"><path d="M67.177,81.796c-0.501,-0.11 -3.812,-1.343 -5.704,-2.523c-2.593,-1.618 -5.033,-3.696 -7.024,-5.261c-3.146,-3.224 -5.051,-6.328 -6.493,-8.425c2.566,-1.093 5.527,-3.354 7.945,-7.884c1.637,-3.026 1.675,-7.972 -0.129,-13.203c-1.654,-4.795 -4.682,-9.901 -7.747,-13.27c-1.172,-1.433 -7.138,-8.4 -14.298,-10.989c-4.94,-1.786 -10.324,-1.72 -15.569,1.741c-7.488,4.91 -12.99,12.386 -14.74,22.046c-1.286,7.097 -0.401,15.488 3.698,25.107c1.987,4.713 5.063,10.884 9.073,17.235c3.427,5.428 7.589,10.922 12.331,15.784c4.631,4.783 9.909,8.854 15.101,12.258c6.258,4.102 12.46,7.093 17.37,9.021l0.001,-0c12.815,4.147 24.184,4.21 33.181,1.391c8.632,-2.704 15.335,-7.754 19.328,-14.511c3.152,-5.333 3.431,-10.974 1.794,-16.255c-2.721,-8.784 -10.691,-16.233 -10.691,-16.233c-0.057,-0.054 -0.115,-0.107 -0.173,-0.159c-4.992,-4.235 -9.704,-7.624 -14.115,-8.934c-5.303,-1.575 -10.443,-1.168 -15.477,2.908c-4.2,3.384 -6.532,6.425 -7.392,9.157c-0.104,0.332 -0.196,0.665 -0.27,0.999Zm-25.671,-22.626c0.742,1.319 0.624,1.376 2.003,1.246c2.025,-0.192 5.244,-2.259 6.951,-5.454c2.322,-4.344 -2.415,-14.689 -7.244,-19.807c-0,-0 -11.312,-14.684 -21.226,-7.898c-10.481,7.175 -16.269,20.484 -7.881,38.87c3.645,7.989 10.765,20.544 20.567,30.036c9.472,9.173 21.55,15.371 29.714,18.28c19.445,6.929 35.162,2.181 41.854,-8.439c6.329,-10.047 -7.086,-22.764 -7.086,-22.764c-7.228,-6.443 -13.497,-10.973 -19.814,-6.098c-3.458,2.669 -5.317,4.823 -5.411,7.014c-0.008,0.182 -0.096,1.309 0.635,1.625c0.864,0.374 0.768,0.331 1.684,0.688c1.474,0.482 2.268,2.035 1.771,3.466c-0.496,1.431 -2.03,1.933 -3.57,1.72c-2.504,-0.346 -8.951,-2.746 -9.693,-3.092c-2.267,-0.896 -5.02,-2.121 -6.955,-3.121c-2.465,-1.275 -4.672,-2.617 -6.597,-4.036c-4.103,-3.023 -7.066,-6.207 -9.237,-9.071c-5.093,-6.718 -5.933,-11.838 -5.933,-11.838l0,0c-0.377,-1.465 0.542,-2.951 2.051,-3.317c1.508,-0.367 2.336,0.07 3.417,1.99Zm7.381,-46.162c0,0 14.152,-2.748 29.966,-0.666c9.097,1.199 18.721,4.069 26.528,10.257c11.212,8.886 18.458,24.623 14.975,52.525c-0.241,1.672 0.962,3.22 2.684,3.454c1.723,0.234 3.317,-0.934 3.558,-2.606c3.21,-19.245 1.34,-33.469 -3.432,-43.916c-3.065,-6.71 -7.334,-11.937 -12.315,-15.914c-9.06,-7.234 -20.445,-10.414 -31.079,-11.429c-17.183,-1.641 -32.339,2.341 -32.339,2.341c-1.693,0.389 -2.741,2.04 -2.34,3.683c0.402,1.643 2.102,2.661 3.794,2.271l0,0Zm10.474,12.418c0,0 7.799,-0.713 16.939,1.511c4.869,1.185 10.064,3.301 14.772,6.872c4.547,3.448 8.662,8.239 11.344,15.311c1.419,3.741 2.54,8.036 3.109,13.042c0.104,1.507 1.449,2.648 3.001,2.546c1.552,-0.102 2.727,-1.407 2.622,-2.914c-0.321,-10.92 -3.032,-19.15 -7.027,-25.329c-2.313,-3.579 -5.073,-6.49 -8.092,-8.785c-5.691,-4.327 -12.221,-6.574 -18.195,-7.63c-10.553,-1.866 -19.364,-0.027 -19.364,-0.027c-1.535,0.239 -2.583,1.643 -2.337,3.134c0.246,1.491 1.692,2.508 3.228,2.269l0,0Zm7.437,18.269c-0,-0 4.598,0.71 9.398,3.095c1.709,0.849 3.458,1.896 5.037,3.346c2.209,2.027 4.269,4.651 5.151,8.659c0.226,1.674 1.809,2.856 3.534,2.637c1.724,-0.218 2.942,-1.756 2.717,-3.43c-0.462,-7.718 -3.919,-12.924 -8.278,-16.112c-2.698,-1.974 -5.784,-3.081 -8.559,-3.693c-5.039,-1.111 -9.07,-0.622 -9.07,-0.622c-1.739,0.019 -3.136,1.405 -3.117,3.094c0.02,1.688 1.447,3.044 3.187,3.026Z" style="fill:#fff;"/></g></svg>