<?xml version="1.0" encoding="UTF-8" standalone="no"?><!DOCTYPE svg PUBLIC "-//W3C//DTD SVG 1.1//EN" "http://www.w3.org/Graphics/SVG/1.1/DTD/svg11.dtd"><svg width="100%" height="100%" viewBox="0 0 132 132" version="1.1" xmlns="http://www.w3.org/2000/svg" xmlns:xlink="http://www.w3.org/1999/xlink" xml:space="preserve" xmlns:serif="http://www.serif.com/" style="fill-rule:evenodd;clip-rule:evenodd;stroke-linejoin:round;stroke-miterlimit:2;"><rect id="ICONS-SVG" serif:id="ICONS SVG" x="0" y="0" width="131.067" height="131.086" style="fill:none;"/><g id="icon_SMS"><path d="M11.886,75.885c0.408,2.235 1.47,9.625 -0.474,17.62c-1.262,5.191 -3.85,10.642 -8.883,15.016c-1.492,1.297 -1.378,2.726 -1.132,3.686c0.221,0.861 1.17,2.484 3.777,2.732c1.958,0.186 6.878,-0.451 12.699,-2.634c7.622,-2.858 16.765,-8.42 22.734,-17.787c3.09,0.552 8.213,1.4 13.462,1.979c4.01,0.443 8.089,0.706 11.443,0.611c18.265,-0.605 35.832,-4.66 47.938,-12.929c10.443,-7.132 16.984,-17.297 17.406,-30.656c0.244,-10.923 -6.967,-20.778 -19.356,-27.527c-11.733,-6.392 -28.112,-10.127 -45.381,-9.867c-17.329,0.348 -34.936,4.197 -47.426,11.096c-12.025,6.643 -19.418,16.036 -18.393,27.512c0.389,4.295 1.649,8.416 3.883,12.228c1.884,3.213 4.427,6.223 7.703,8.92Zm0.572,30.764c2.358,-3.882 4.427,-8.537 5.176,-12.5c2.071,-10.959 -0.751,-20.679 -0.751,-20.679c-0.119,-0.456 -0.378,-0.876 -0.759,-1.191c-2.944,-2.559 -5.179,-5.38 -6.751,-8.379c-1.672,-3.188 -3.208,-6.035 -3.36,-9.544c-0.405,-9.131 6.242,-15.955 15.996,-20.815c11.773,-5.865 28.136,-8.701 44.11,-8.379c15.433,0.232 29.965,3.919 40.311,9.881c8.221,4.738 13.828,10.797 13.533,18.139c-0.298,9.646 -5.238,16.806 -12.708,22.056c-10.611,7.458 -26.048,11.284 -42.188,12.241c-2.968,0.191 -6.59,0.063 -10.157,-0.195c-8.005,-0.58 -15.736,-1.794 -15.736,-1.794c-1.886,-0.338 -3.768,0.611 -4.618,2.329c-4.97,10.648 -14.971,16.328 -22.098,18.83Z" style="fill:#fff;"/><g><path d="M74.925,67.723c-1.278,1.191 -2.642,2.253 -4.093,3.183c-0.269,0.165 -0.425,0.357 -0.504,0.555c-0.094,0.235 -0.095,0.493 0.03,0.775c0.145,0.327 0.344,0.617 0.598,0.871c0.236,0.236 0.456,0.421 0.658,0.556c0.002,0.001 0.004,0.002 0.006,0.003c1.314,0.854 2.424,0.945 3.313,0.411c0.004,-0.003 0.008,-0.005 0.012,-0.008c1.503,-0.963 2.916,-2.075 4.239,-3.338c0.039,-0.034 0.077,-0.077 0.112,-0.132l0.21,-0.338c0.037,-0.055 0.063,-0.118 0.076,-0.185c0.152,-0.762 -0.321,-1.576 -1.651,-2.262c-1.404,-0.739 -2.411,-0.679 -3.006,-0.091Zm-7.275,-14.497c-0.677,0.046 -1.37,0.099 -2.08,0.162c0.128,-0.737 0.271,-1.494 0.427,-2.272c1.901,-0.161 3.738,-0.283 5.509,-0.366c0.004,-0 0.007,-0.001 0.01,-0.001c0.685,-0.046 1.105,-0.341 1.31,-0.798c0.205,-0.455 0.15,-0.964 -0.258,-1.51c-0.002,-0.001 -0.003,-0.003 -0.004,-0.005c-0.346,-0.45 -0.826,-0.818 -1.449,-1.095c-0.617,-0.275 -1.218,-0.391 -1.8,-0.356c-0.001,-0 -0.002,-0 -0.002,-0c-0.768,0.048 -1.624,0.106 -2.566,0.173c0.248,-1.22 0.558,-2.763 0.93,-4.629c0.188,-0.937 -0.347,-1.82 -1.806,-2.495c-0.005,-0.002 -0.009,-0.004 -0.014,-0.006c-0.231,-0.099 -0.527,-0.192 -0.891,-0.274c-0.377,-0.086 -0.771,-0.113 -1.183,-0.079c-0.643,0.054 -0.983,0.371 -1.09,0.855c-0.001,0.003 -0.001,0.007 -0.002,0.01c-0.604,3.025 -1.069,5.376 -1.393,7.053c-0.527,0.039 -1.066,0.083 -1.615,0.133c0.169,-1.093 0.327,-2.072 0.476,-2.938c0.001,-0.01 0.003,-0.02 0.004,-0.031c0.042,-0.375 -0.181,-0.887 -0.838,-1.429c-0.444,-0.438 -1.005,-0.747 -1.684,-0.918c-1.056,-0.297 -1.773,-0.154 -2.167,0.232c-0.202,0.198 -0.341,0.467 -0.397,0.816c-0,0.001 -0,0.001 -0.001,0.002c-0.246,1.593 -0.493,3.199 -0.74,4.818c-2.355,0.255 -4.643,0.523 -6.864,0.805c-0.001,0 -0.002,0 -0.003,0c-0.665,0.089 -1.072,0.386 -1.272,0.808c-0.207,0.438 -0.159,0.944 0.255,1.497c0.001,0.001 0.002,0.003 0.004,0.005c0.343,0.447 0.829,0.822 1.464,1.115c0.65,0.299 1.257,0.404 1.819,0.333c0.003,-0 0.006,-0 0.009,-0.001c1.258,-0.18 2.605,-0.349 4.041,-0.506c-0.112,0.884 -0.232,1.848 -0.36,2.89c-1.722,0.342 -3.419,0.736 -5.089,1.182c-0.418,0.106 -0.672,0.322 -0.803,0.584c-0.129,0.259 -0.161,0.542 -0.084,0.852c0.058,0.232 0.154,0.454 0.289,0.667c-0,-0 -0,-0 -0,-0c0.126,0.198 0.261,0.368 0.405,0.512c0.015,0.015 0.03,0.029 0.047,0.042c0.461,0.363 0.979,0.643 1.555,0.841c0.623,0.214 1.219,0.245 1.788,0.102l1.364,-0.351c-0.205,1.904 -0.386,3.738 -0.544,5.502c0,0.003 -0,0.006 -0,0.009c-0.042,0.582 0.228,1.126 0.893,1.583c0.512,0.353 1.025,0.61 1.537,0.773c0.404,0.177 0.892,0.223 1.462,0.112c0.717,-0.139 1.105,-0.549 1.197,-1.198c0.001,-0.009 0.003,-0.019 0.003,-0.029c0.227,-2.632 0.493,-5.278 0.8,-7.938c0,-0 1.209,-0.233 1.209,-0.233c-0.68,4.461 -1.118,8.587 -1.316,12.378c-0.001,0.009 -0.001,0.018 -0.001,0.027c0,0.257 0.061,0.513 0.189,0.77c0.003,0.005 0.005,0.011 0.008,0.016c0.417,0.765 1.246,1.32 2.53,1.599c0.852,0.184 1.457,0.089 1.826,-0.169c0.309,-0.217 0.503,-0.548 0.541,-1.013c0.001,-0.005 0.001,-0.01 0.001,-0.016c0.231,-4.306 0.772,-9.106 1.623,-14.4c1.696,-0.212 3.366,-0.373 5.011,-0.483c0.698,-0.047 1.11,-0.352 1.296,-0.818c0.179,-0.449 0.113,-0.952 -0.29,-1.49c-0.001,-0.002 -0.002,-0.003 -0.004,-0.005c-0.345,-0.45 -0.826,-0.818 -1.448,-1.095c-0.625,-0.279 -1.218,-0.377 -1.774,-0.311Zm22.289,14.252c-0.002,-0.001 -0.003,-0.002 -0.005,-0.002c-1.261,-0.773 -2.354,-0.879 -3.265,-0.423c-0.005,0.002 -0.009,0.004 -0.013,0.006c-0.864,0.462 -1.843,0.865 -2.937,1.211c-0.009,0.003 -0.018,0.006 -0.027,0.009c-0.391,0.147 -0.629,0.368 -0.751,0.613c-0.133,0.266 -0.161,0.546 -0.081,0.84c0.057,0.211 0.151,0.422 0.286,0.633c-0,0 -0,0.001 -0,0.001c0.133,0.21 0.296,0.392 0.486,0.546c0.433,0.366 0.948,0.65 1.547,0.85c0.643,0.215 1.233,0.242 1.769,0.099c0.01,-0.003 0.021,-0.006 0.031,-0.009c1.18,-0.394 2.421,-0.924 3.722,-1.591c0.241,-0.121 0.401,-0.3 0.49,-0.522c0.102,-0.256 0.106,-0.602 -0.065,-1.03c-0.005,-0.014 -0.011,-0.027 -0.017,-0.04c-0.215,-0.43 -0.598,-0.833 -1.17,-1.191Zm11.794,0c-0.002,-0.001 -0.003,-0.002 -0.005,-0.002c-1.261,-0.773 -2.354,-0.879 -3.266,-0.423c-0.004,0.002 -0.008,0.004 -0.012,0.006c-0.864,0.462 -1.843,0.865 -2.938,1.211c-0.008,0.003 -0.017,0.006 -0.026,0.009c-0.391,0.147 -0.629,0.368 -0.751,0.613c-0.133,0.266 -0.161,0.546 -0.081,0.84c0.057,0.211 0.151,0.422 0.285,0.633c0,0 0,0.001 0,0.001c0.134,0.21 0.297,0.392 0.487,0.546c0.433,0.366 0.948,0.65 1.547,0.85c0.643,0.215 1.233,0.242 1.769,0.099c0.01,-0.003 0.021,-0.006 0.031,-0.009c1.18,-0.394 2.421,-0.924 3.722,-1.591c0.241,-0.121 0.401,-0.3 0.489,-0.522c0.103,-0.256 0.107,-0.602 -0.064,-1.03c-0.005,-0.014 -0.011,-0.027 -0.017,-0.04c-0.215,-0.43 -0.598,-0.833 -1.17,-1.191Zm-60.905,-2.262l-0.014,0.011l0.012,-0.009c0.042,-0.034 0.083,-0.077 0.121,-0.134l0.261,-0.392c0.035,-0.053 0.061,-0.112 0.075,-0.177c0.092,-0.415 -0.008,-0.837 -0.353,-1.252c-0.256,-0.307 -0.668,-0.622 -1.248,-0.929c0,-0.001 -0,-0.001 -0.001,-0.001c-1.385,-0.73 -2.414,-0.71 -3.07,-0.162c-0.004,0.003 -0.008,0.007 -0.012,0.01c-2.213,1.957 -4.291,3.218 -6.245,3.765c-1.027,0.278 -2.013,0.364 -2.957,0.253c-0.397,-0.053 -0.755,-0.131 -1.075,-0.236c-0.246,-0.1 -0.459,-0.23 -0.648,-0.396c-0.005,-0.004 -0.01,-0.008 -0.015,-0.012c-1.338,-1.089 -2.183,-2.802 -2.573,-5.119c-0,-0.001 -0,-0.001 -0,-0.002c-0.403,-2.333 -0.317,-4.653 0.258,-6.957c0.604,-2.304 1.639,-4.37 3.105,-6.199c1.457,-1.817 3.228,-3.169 5.313,-4.057c2.239,-0.924 4.213,-1.225 5.924,-0.871c0.096,0.034 0.252,0.079 0.469,0.129c0.219,0.102 0.348,0.114 0.348,0.114c-0.02,0 -0.069,-0.009 -0.096,-0.014l-0.007,-0.005l0.006,0.005l-0.018,-0.003l0.032,0.016c0.065,0.059 0.143,0.1 0.226,0.12c0.02,0.013 0.053,0.036 0.083,0.059c0.107,0.107 0.221,0.235 0.346,0.385c0.476,0.613 0.741,1.455 0.82,2.518c0.172,2.353 -0.484,4.947 -1.945,7.787c-0.432,0.823 -0.87,1.544 -1.316,2.163c0.128,-0.425 0.277,-0.872 0.447,-1.34c0,-0.001 0.001,-0.002 0.001,-0.003c0.148,-0.415 0.947,-2.429 2.396,-6.043c0.001,-0.003 0.002,-0.005 0.003,-0.008c0.224,-0.583 0.1,-1.142 -0.438,-1.658c-0.398,-0.381 -0.845,-0.688 -1.342,-0.921c-0.013,-0.006 -0.025,-0.011 -0.038,-0.016c-0.254,-0.095 -0.54,-0.183 -0.858,-0.263c-0.357,-0.089 -0.74,-0.109 -1.151,-0.055c-0.551,0.072 -0.909,0.343 -1.1,0.774c-0.005,0.011 -0.01,0.023 -0.014,0.034c-0.099,0.274 -0.325,0.844 -0.678,1.709c-1.681,-0.69 -3.282,-0.733 -4.803,-0.147c-1.115,0.427 -1.991,1.126 -2.63,2.095c-0.621,0.941 -1.013,2.016 -1.173,3.228c-0.194,1.458 -0.005,2.704 0.543,3.741c0.75,1.498 2.044,2.486 3.899,2.943c0.552,0.157 1.091,0.209 1.608,0.157c0.205,0.332 0.518,0.642 0.947,0.921c0.108,0.156 0.232,0.286 0.369,0.39l-0.012,-0.009c1.026,0.884 2.123,1.192 3.284,0.953c0.003,-0.001 0.007,-0.002 0.011,-0.002c2.465,-0.563 4.624,-2.398 6.434,-5.554c1.709,-2.966 2.589,-5.872 2.651,-8.716c0.062,-1.708 -0.305,-3.241 -1.095,-4.601c-0.788,-1.358 -1.921,-2.45 -3.403,-3.271c-0.001,-0.001 -0.003,-0.002 -0.005,-0.003c-2.684,-1.452 -5.783,-1.818 -9.3,-1.077c-2.852,0.584 -5.374,1.873 -7.567,3.87c-2.185,1.99 -3.768,4.378 -4.746,7.164c-0.671,1.832 -1.052,3.733 -1.143,5.702c-0.092,1.976 0.16,3.944 0.756,5.905c0.605,1.988 1.592,3.664 2.957,5.031c1.304,1.307 2.872,2.257 4.704,2.848c1.828,0.589 3.655,0.759 5.483,0.51c0,0 0.001,0 0.002,0c3.048,-0.427 6.116,-1.985 9.195,-4.696Zm34.097,2.506l-0.004,0.004l0.004,-0.004Zm-1.316,-2.034c0.001,0.001 0.001,0.002 0.002,0.002c0.462,0.397 1.005,0.697 1.63,0.897c0.397,0.175 0.886,0.222 1.458,0.111c0.717,-0.139 1.105,-0.549 1.197,-1.198c0.001,-0.007 0.002,-0.013 0.003,-0.02c0.92,-9.012 1.648,-18.038 2.182,-27.079c0.001,-0.01 0.001,-0.021 0.001,-0.031c0,-0.256 -0.061,-0.513 -0.189,-0.769c-0.005,-0.011 -0.011,-0.022 -0.017,-0.032c-0.448,-0.76 -1.275,-1.305 -2.514,-1.582c-0.878,-0.207 -1.495,-0.114 -1.86,0.15c-0.306,0.221 -0.494,0.562 -0.515,1.046c-0.534,9.025 -1.26,18.051 -2.179,27.076c-0.041,0.373 0.172,0.883 0.801,1.429Zm-41.1,-14.52l-0.46,1.239c-0.072,0.192 -0.135,0.375 -0.188,0.549c-0.097,0.087 -0.187,0.184 -0.268,0.291c-0.417,0.523 -0.847,1.034 -1.288,1.533c0.015,-0.21 0.041,-0.418 0.078,-0.625c0.237,-1.261 0.756,-2.179 1.595,-2.731c0.171,-0.11 0.348,-0.195 0.531,-0.256Zm27.623,2.831c-0.449,0.069 -0.898,0.143 -1.347,0.221c0.106,-0.808 0.219,-1.638 0.339,-2.488c0.495,-0.051 0.977,-0.101 1.444,-0.151c-0.145,0.835 -0.29,1.641 -0.436,2.418Zm7.518,-0.773l-0.013,0.002l0.013,-0.002Z" style="fill:#fff;fill-rule:nonzero;"/></g></g></svg>