<?xml version="1.0" encoding="UTF-8" standalone="no"?><!DOCTYPE svg PUBLIC "-//W3C//DTD SVG 1.1//EN" "http://www.w3.org/Graphics/SVG/1.1/DTD/svg11.dtd"><svg width="100%" height="100%" viewBox="0 0 132 132" version="1.1" xmlns="http://www.w3.org/2000/svg" xmlns:xlink="http://www.w3.org/1999/xlink" xml:space="preserve" xmlns:serif="http://www.serif.com/" style="fill-rule:evenodd;clip-rule:evenodd;stroke-linejoin:round;stroke-miterlimit:2;"><rect id="ICONS-SVG" serif:id="ICONS SVG" x="0" y="0" width="131.067" height="131.086" style="fill:none;"/><g id="icon_notes"><path d="M64.798,11.355l-4.528,0.002c-0.384,-2.379 -1.11,-4.383 -1.981,-5.646c-1.039,-1.507 -2.307,-2.326 -3.72,-2.381c-3.274,-0.065 -5.201,0.982 -6.314,2.441c-0.742,0.973 -1.211,2.057 -1.378,3.111c-0.16,1.006 -0.136,1.92 -0.092,2.482l-3.739,0.002c-0.353,-2.273 -1.006,-4.194 -1.796,-5.439c-1.034,-1.628 -2.341,-2.492 -3.79,-2.554c-3.454,-0.083 -5.497,1.19 -6.653,2.963c-1.088,1.67 -1.359,3.725 -1.408,5.036l-3.276,0.002c-0.898,-0.008 -1.761,0.345 -2.398,0.978c-0.583,0.581 -0.931,1.354 -0.982,2.17l-6.156,5.537c-0.625,0.568 -0.982,1.371 -0.986,2.215l-0.966,102.263c-0.004,0.955 0.38,1.87 1.064,2.536c0.683,0.666 1.608,1.025 2.562,0.995l86.36,-2.573c1.31,-0.041 2.496,-0.787 3.1,-1.951l3.761,-7.283l1.259,-0.23c1.222,-0.224 2.296,-0.943 2.97,-1.987c0.674,-1.043 0.887,-2.318 0.59,-3.524l-2.391,-9.623c0,-0 -2.101,-85.572 -2.101,-85.572c-0.043,-2.204 -1.832,-3.972 -4.036,-3.99l-13,0.006c-0.387,-2.444 -1.111,-4.51 -1.975,-5.819c-1.052,-1.594 -2.354,-2.44 -3.78,-2.5c-3.544,-0.082 -5.528,1.25 -6.584,3.064c-1.032,1.772 -1.129,3.97 -1.075,5.261l-3.05,0.002c-0.37,-2.439 -1.08,-4.503 -1.933,-5.812c-1.046,-1.605 -2.35,-2.457 -3.783,-2.518c-3.513,-0.083 -5.516,1.229 -6.606,3.028c-1.086,1.792 -1.22,4.023 -1.189,5.308Zm-42.095,11.266l-1.073,0.988c0,-0 -1.495,77.247 -1.847,95.434c-0.047,2.427 1.071,3.74 3.09,3.63c15.133,-0.829 78.838,-3.956 78.838,-3.956l0.434,-0.903c-0,-0 -1.527,0.104 -1.758,0.111l-73.818,1.982c-1.115,0.031 -2.196,-0.39 -2.997,-1.167c-0.801,-0.776 -1.255,-1.843 -1.259,-2.959l0.39,-93.16Zm7.449,21.602l1.273,67.239l68.355,-2.195c-0,-0 6.633,-1.229 6.633,-1.229l-1.34,-5.461c-0.08,-0.324 -0.123,-0.655 -0.13,-0.988l-0.839,-56.769c-5.46,0.118 -14.36,0.288 -24.279,0.392c-4.153,0.043 -8.484,0.086 -12.816,0.045c-7.418,-0.071 -14.833,-0.287 -21.354,-0.484c-6.256,-0.189 -11.685,-0.394 -15.503,-0.55Zm10.694,53.637c0,-0 5.715,0.357 13.444,0.623c4.105,0.142 8.772,0.296 13.444,0.304c2.727,0.005 5.452,-0.074 8.066,-0.153c10.289,-0.309 18.821,-0.774 18.821,-0.774c1.499,-0 2.717,-1.218 2.717,-2.717c-0,-1.499 -1.218,-2.717 -2.717,-2.717c0,0 -8.532,-0.465 -18.821,-0.774c-2.614,-0.079 -5.339,-0.158 -8.066,-0.153c-4.672,0.008 -9.339,0.162 -13.444,0.304c-7.729,0.266 -13.444,0.623 -13.444,0.623c-1.499,0 -2.717,1.218 -2.717,2.717c0,1.499 1.218,2.717 2.717,2.717Zm0.979,-18.921c-0,-0 5.642,0.392 13.274,0.706c4.054,0.167 8.662,0.35 13.276,0.387c2.693,0.022 5.385,-0.041 7.967,-0.103c10.165,-0.246 18.594,-0.658 18.594,-0.658c1.499,0.009 2.724,-1.201 2.734,-2.7c0.009,-1.499 -1.201,-2.724 -2.7,-2.733c0,-0 -8.423,-0.518 -18.584,-0.891c-2.581,-0.095 -5.272,-0.191 -7.966,-0.203c-4.614,-0.02 -9.224,0.105 -13.279,0.221c-7.635,0.219 -13.282,0.541 -13.282,0.541c-1.499,-0.01 -2.724,1.2 -2.734,2.699c-0.009,1.499 1.201,2.724 2.7,2.734Zm-2.275,-17.925c-0,-0 6.109,0.286 14.363,0.457c4.386,0.091 9.372,0.187 14.361,0.138c2.912,-0.029 5.821,-0.142 8.612,-0.253c10.983,-0.436 20.09,-1.006 20.09,-1.006c1.499,-0.018 2.702,-1.249 2.685,-2.748c-0.017,-1.499 -1.249,-2.702 -2.748,-2.685c0,-0 -9.118,-0.36 -20.108,-0.542c-2.792,-0.046 -5.704,-0.092 -8.616,-0.054c-4.988,0.066 -9.97,0.278 -14.353,0.47c-8.248,0.362 -14.349,0.79 -14.349,0.79c-1.499,0.017 -2.702,1.248 -2.685,2.748c0.017,1.499 1.248,2.702 2.748,2.685Zm-9.509,-22.629c3.827,-0.092 9.324,-0.208 15.67,-0.292c6.524,-0.087 13.941,-0.178 21.36,-0.124c4.331,0.032 8.661,0.148 12.813,0.261c9.834,0.269 18.665,0.587 24.134,0.797l-0.29,-19.62l-8.578,-0.145c-0.066,2.383 -0.247,4.637 -0.423,6.377c1.25,0.637 2.107,1.937 2.107,3.434c-0,2.126 -1.726,3.853 -3.853,3.853c-2.126,-0 -3.852,-1.727 -3.852,-3.853c0,-1.198 0.548,-2.269 1.407,-2.975c-0.119,-1.799 -0.307,-4.298 -0.578,-6.924l-11.314,-0.191c-0.089,2.904 -0.351,5.64 -0.571,7.523c1.191,0.656 2,1.923 2,3.378c-0,2.126 -1.726,3.853 -3.853,3.853c-2.126,-0 -3.852,-1.727 -3.852,-3.853c0,-1.305 0.65,-2.459 1.644,-3.156c-0.105,-1.871 -0.294,-4.78 -0.593,-7.834l-12.789,-0.217c-0.093,3.238 -0.425,6.274 -0.662,8.104c1.187,0.657 1.992,1.922 1.992,3.374c-0,2.126 -1.726,3.852 -3.852,3.852c-2.126,-0 -3.853,-1.726 -3.853,-3.852c0,-1.358 0.704,-2.553 1.767,-3.239c-0.099,-1.77 -0.304,-4.97 -0.648,-8.328l-12.005,-0.203c-0.006,0.2 -0.013,0.399 -0.021,0.598c-0.103,2.702 -0.363,5.287 -0.599,7.208c0.991,0.698 1.639,1.85 1.639,3.153c-0,2.126 -1.726,3.852 -3.852,3.852c-2.127,-0 -3.853,-1.726 -3.853,-3.852c0,-1.402 0.75,-2.629 1.87,-3.303c-0.097,-2.05 -0.26,-4.875 -0.521,-7.746l-8.374,-0.142l0.383,20.232Zm7.137,-27.017c-0.166,-1.016 -0.345,-1.904 -0.656,-2.566c-0.026,-0.056 -0.04,-0.148 -0.055,-0.222c-0.038,-0.007 -0.068,-0.017 -0.086,-0.03c-0.916,-0.083 -1.57,0.079 -1.996,0.548c-0.626,0.69 -0.964,1.577 -1.144,2.272l3.937,-0.002Zm17.216,-0.008c-0.186,-1.051 -0.371,-1.972 -0.71,-2.641c-0.026,-0.052 -0.039,-0.139 -0.054,-0.208c-0.059,-0.009 -0.097,-0.025 -0.09,-0.053c-0.9,-0.12 -1.534,-0.066 -1.949,0.323c-0.878,0.823 -1.077,2.098 -1.121,2.581l3.924,-0.002Zm18.041,-0.009c-0.197,-1.151 -0.392,-2.16 -0.746,-2.891c-0.029,-0.06 -0.045,-0.161 -0.063,-0.239c-0.051,-0.008 -0.089,-0.02 -0.103,-0.039c-0.875,-0.086 -1.49,0.05 -1.877,0.505c-0.707,0.831 -0.985,1.95 -1.094,2.666l3.883,-0.002Zm16.458,-0.007c-0.203,-1.145 -0.405,-2.148 -0.761,-2.875c-0.031,-0.063 -0.048,-0.167 -0.068,-0.247c-0.056,-0.008 -0.097,-0.021 -0.106,-0.044c-0.858,-0.087 -1.455,0.035 -1.823,0.482c-0.69,0.84 -0.938,1.974 -1.027,2.685l3.785,-0.001Zm-52.43,-2.786c-0.016,-0.072 -0.035,-0.12 -0.072,-0.085c-0.038,0.034 -0.037,0.059 -0.01,0.077l0.082,0.008l0.004,0.022c0.136,0.028 0.367,0.027 0.481,0.045c-0.169,-0.029 -0.331,-0.052 -0.485,-0.067Zm17.156,-0.09c-0.013,-0.048 -0.029,-0.073 -0.057,-0.046c-0.013,0.014 -0.021,0.025 -0.022,0.036l0.079,0.01l0.011,0.043c0.12,0.02 0.329,0.011 0.431,0.027c-0.154,-0.027 -0.301,-0.05 -0.442,-0.07Zm18,-0.277c-0.017,-0.065 -0.038,-0.105 -0.074,-0.071c-0.028,0.026 -0.033,0.046 -0.022,0.062l0.096,0.009l0.007,0.03c0.132,0.024 0.349,0.02 0.456,0.037c-0.162,-0.028 -0.316,-0.051 -0.463,-0.067Zm16.436,-0.002c-0.017,-0.063 -0.039,-0.099 -0.074,-0.066c-0.024,0.023 -0.031,0.041 -0.023,0.055l0.097,0.011l0.009,0.033c0.13,0.021 0.34,0.016 0.444,0.033c-0.158,-0.028 -0.309,-0.05 -0.453,-0.066Z" style="fill:#fff;"/></g></svg>