<?xml version="1.0" encoding="UTF-8" standalone="no"?><!DOCTYPE svg PUBLIC "-//W3C//DTD SVG 1.1//EN" "http://www.w3.org/Graphics/SVG/1.1/DTD/svg11.dtd"><svg width="100%" height="100%" viewBox="0 0 132 132" version="1.1" xmlns="http://www.w3.org/2000/svg" xmlns:xlink="http://www.w3.org/1999/xlink" xml:space="preserve" xmlns:serif="http://www.serif.com/" style="fill-rule:evenodd;clip-rule:evenodd;stroke-linejoin:round;stroke-miterlimit:2;"><rect id="ICONS-SVG" serif:id="ICONS SVG" x="0" y="0" width="131.067" height="131.086" style="fill:none;"/><g id="icon_AD"><path d="M67.522,3.067c-3.039,-1.311 -6.655,-1.54 -10.928,-1.63c-13.581,0.261 -19.547,7.157 -23.025,16.968c-2.266,6.393 -4.217,13.717 -3.856,20.576c0.006,0.112 0.012,0.223 0.019,0.333l-12.093,-0.008c-1.867,-0.034 -3.446,1.374 -3.627,3.232l-9.329,81.467c-0.136,1.398 0.325,2.788 1.269,3.829c0.944,1.04 2.284,1.633 3.689,1.633c-0,0 28.788,0.448 53.721,0.623c19.032,0.135 35.814,0.09 35.814,0.09c1.681,-0 3.276,-0.743 4.357,-2.029c0.374,-0.445 0.674,-0.939 0.894,-1.464l16.399,-0.228c1.633,-0.033 3.173,-0.766 4.229,-2.011c1.057,-1.246 1.528,-2.885 1.294,-4.501c-0,-0 -2.079,-13.828 -4.659,-29.477c-3.382,-20.508 -7.579,-44.129 -7.579,-44.129c-0.279,-1.923 -1.86,-3.392 -3.798,-3.528l-5.542,-0.21c0.726,-3.636 1.606,-9.661 1.147,-15.963c-0.339,-4.654 -2.039,-9.581 -4.303,-13.733c-3.592,-6.588 -9.326,-10.902 -20.161,-11.944c-5.572,-0.255 -10.281,0.208 -13.932,2.104Zm-37.043,43.861l-11.411,-0.885c-0,0 -4.027,73.383 -4.027,73.383c9.506,-0.137 29.959,-0.414 48.321,-0.543c11,-0.078 21.248,-0.096 27.94,-0.097l-0.106,-11.302c-0.225,-1.768 -0.648,-31.178 -0.915,-37.153c-0.373,-8.319 0.432,-17.534 0.159,-22.334l-10.98,0.687c-0.567,2.495 -1.15,4.659 -1.633,6.321c1.178,1.22 1.903,2.88 1.903,4.709c-0,3.742 -3.038,6.78 -6.78,6.78c-3.742,-0 -6.78,-3.038 -6.78,-6.78c-0,-2.893 1.815,-5.365 4.368,-6.338c0.264,-1.333 0.57,-3.031 0.854,-4.981l-10.875,-0.39c-0.413,0.262 -0.886,0.442 -1.401,0.517c-0.969,0.14 -1.903,-0.123 -2.634,-0.662l-17.775,-0.637c0.121,2.179 0.302,4.121 0.48,5.695c2.561,0.97 4.383,3.446 4.383,6.344c-0,3.742 -3.038,6.78 -6.78,6.78c-3.742,-0 -6.78,-3.038 -6.78,-6.78c0,-1.783 0.689,-3.405 1.816,-4.616c-0.429,-2.019 -0.93,-4.676 -1.347,-7.718Zm67.066,2.874c0.419,4.919 1.023,12.305 1.548,19.835c0.425,6.076 0.787,12.243 0.987,17.294c0.156,4.193 0.708,9.386 1.356,14.518c0.641,5.087 1.393,10.112 2.021,14.079l10.748,-0.29c-0.745,-5.521 -1.879,-14.062 -3.024,-23.247c-2.006,-16.087 -4.073,-34.13 -4.886,-41.292l-8.75,-0.897Zm-0.3,-7.484c0.389,-4.031 0.784,-12.91 -2.137,-20.393c-2.09,-5.357 -6.308,-9.764 -14.621,-10.085c-1.107,-0.102 -2.143,-0.115 -3.114,-0.049c1.261,2.127 2.216,4.485 2.909,7.002c1.42,5.152 1.691,10.994 1.255,16.628c-0.103,1.326 -0.241,2.639 -0.405,3.925l11.107,0.007c1.963,0.036 3.654,1.229 4.399,2.942l0.607,0.023Zm-29.478,-25.364c-0.096,0.131 -0.191,0.265 -0.283,0.4c-4.481,6.576 -5.384,16.143 -5.473,21.98l10.267,0.006c0.266,-5.801 -0.081,-12.158 -1.912,-17.499c-0.622,-1.817 -1.468,-3.479 -2.599,-4.887Zm-9.488,-4.584c-0.541,-0.033 -1.102,-0.044 -1.685,-0.032c-7.976,-0.153 -12.326,4.042 -14.713,9.669c-2.231,5.259 -3.082,11.531 -3.275,17.312l15.622,0.01c-0.265,-2.89 -0.438,-6.553 -0.214,-10.441c0.321,-5.585 1.561,-11.558 4.265,-16.518Z" style="fill:#fff;"/><path d="M50.489,96.651c0.764,-0.136 1.225,-0.521 1.465,-1.028c0.27,-0.57 0.231,-1.243 -0.364,-1.964c-0.443,-0.558 -1.019,-0.986 -1.736,-1.271c-0.147,-1.001 -0.355,-2.354 -0.623,-4.058c-0.323,-2.054 -0.557,-3.595 -0.704,-4.622c-0.001,-0.006 -0.002,-0.012 -0.003,-0.018c-0.147,-0.91 -0.359,-2.29 -0.638,-4.14c-0.28,-1.852 -0.493,-3.25 -0.64,-4.193c-0.095,-0.685 -0.452,-1.282 -1.115,-1.762c-0.498,-0.36 -1.036,-0.615 -1.613,-0.767c-0.367,-0.17 -0.911,-0.256 -1.64,-0.157c-0.683,0.092 -1.099,0.391 -1.328,0.738c-0.191,0.29 -0.285,0.646 -0.223,1.078l0.334,2.258c-0.637,0.134 -1.034,0.507 -1.237,0.98c-0.003,0.006 -0.005,0.012 -0.008,0.018c-2.866,7.083 -5.049,12.461 -6.547,16.135c-0.068,0.009 -0.139,0.019 -0.214,0.029c-0.281,0.036 -0.482,0.058 -0.605,0.058c-0.042,-0 -0.084,0.003 -0.127,0.008c-0.845,0.113 -1.348,0.513 -1.602,1.049c-0.267,0.565 -0.236,1.223 0.299,1.937c-0,-0 -0,-0 -0,-0c0.192,0.256 0.429,0.492 0.713,0.704c-0.486,1.182 -0.971,2.403 -1.456,3.665c-0.281,0.689 -0.166,1.402 0.523,2.091c0.439,0.44 0.933,0.77 1.48,0.994c0.281,0.137 0.6,0.252 0.953,0.341c-0,-0 -0,-0 -0,-0c0.405,0.101 0.84,0.125 1.306,0.064c0.756,-0.098 1.203,-0.486 1.412,-1.068c0.289,-0.665 0.716,-1.688 1.274,-3.053c0.432,-1.059 0.778,-1.921 1.036,-2.587c0.794,-0.092 1.85,-0.225 3.168,-0.4c1.123,-0.149 2.053,-0.268 2.791,-0.356c0.105,0.704 0.236,1.583 0.393,2.636c0.236,1.579 0.97,5.949 0.97,5.949c0.133,0.665 0.496,1.241 1.116,1.706c0.488,0.366 1.025,0.625 1.61,0.778c0.361,0.168 0.911,0.254 1.653,0.157c0.713,-0.094 1.131,-0.41 1.349,-0.764c0.183,-0.297 0.265,-0.661 0.174,-1.102l0.368,2.418c-1.116,-7.389 -1.448,-9.153 -1.964,-12.481Zm14.784,-18.17l0.141,0.061c0.161,0.046 0.3,0.091 0.417,0.137c0.086,0.048 0.187,0.097 0.306,0.143l0.219,0.121c0.538,0.334 0.952,0.628 1.237,0.887c0.011,0.01 0.023,0.021 0.035,0.031c0.428,0.352 0.803,0.78 1.13,1.283c0.011,0.017 0.022,0.033 0.034,0.049c0.662,0.891 1.059,1.856 1.187,2.899c0.13,1.066 0.056,2.067 -0.23,3.003c-0.303,0.989 -0.779,2.011 -1.425,3.069c-0.662,1.085 -1.344,2.037 -2.049,2.854c-0.717,0.832 -1.506,1.663 -2.366,2.495c-0.562,0.537 -1.093,1.024 -1.594,1.463c0.571,-4.927 1.098,-9.833 1.581,-14.716c0.05,-0.443 -0.16,-1.104 -0.918,-1.812c-0.01,-0.009 -0.02,-0.018 -0.03,-0.027c-0.504,-0.432 -1.093,-0.744 -1.771,-0.932c-0.449,-0.188 -0.997,-0.251 -1.634,-0.148c-0.946,0.152 -1.449,0.687 -1.571,1.541c-0.002,0.014 -0.003,0.027 -0.005,0.041c-0.654,6.6 -1.391,13.186 -2.211,19.759c-0.078,0.017 -0.157,0.032 -0.235,0.047c-0.845,0.12 -1.335,0.508 -1.585,1.008c-0.273,0.546 -0.257,1.204 0.289,1.933c0.002,0.003 0.005,0.006 0.007,0.009c0.377,0.49 0.915,0.915 1.631,1.254c0.776,0.367 1.476,0.46 2.09,0.34c3.388,-0.558 6.765,-2.375 10.1,-5.493c3.512,-3.238 5.816,-6.244 6.946,-8.993c0,-0 0,-0 0,-0c0.738,-1.797 1.017,-3.634 0.841,-5.51c-0.177,-1.885 -0.827,-3.635 -1.954,-5.246l-0,-0c-0.695,-1.011 -1.539,-1.936 -2.534,-2.773c-0.99,-0.832 -2.059,-1.523 -3.206,-2.073c-1.137,-0.545 -2.312,-0.958 -3.527,-1.239c-4.464,-1.076 -9.192,-0.48 -14.179,1.829c-0.009,0.004 -0.018,0.008 -0.026,0.013c-0.291,0.145 -0.502,0.299 -0.647,0.445c-0.024,0.023 -0.046,0.047 -0.066,0.073c-0.661,0.813 -0.581,1.965 1.095,3.083c0.004,0.002 0.007,0.004 0.011,0.007c1.36,0.88 2.488,1.01 3.329,0.65c0.005,-0.002 0.011,-0.005 0.017,-0.008c3.521,-1.592 6.631,-2.259 9.342,-1.951c0.004,0 0.008,0.001 0.012,0.001c0.524,0.053 1.113,0.185 1.766,0.393Zm-24.349,14.487c0.48,-1.173 1.066,-2.616 1.759,-4.327c0.213,-0.527 0.409,-1.011 0.588,-1.452c0.069,0.46 0.143,0.952 0.22,1.476c0.238,1.601 0.437,2.908 0.595,3.923l-3.162,0.38Z" style="fill:#fff;fill-rule:nonzero;"/></g></svg>