<?xml version="1.0" encoding="UTF-8" standalone="no"?><!DOCTYPE svg PUBLIC "-//W3C//DTD SVG 1.1//EN" "http://www.w3.org/Graphics/SVG/1.1/DTD/svg11.dtd"><svg width="100%" height="100%" viewBox="0 0 132 132" version="1.1" xmlns="http://www.w3.org/2000/svg" xmlns:xlink="http://www.w3.org/1999/xlink" xml:space="preserve" xmlns:serif="http://www.serif.com/" style="fill-rule:evenodd;clip-rule:evenodd;stroke-linejoin:round;stroke-miterlimit:2;"><rect id="ICONS-SVG" serif:id="ICONS SVG" x="0" y="0" width="131.067" height="131.086" style="fill:none;"/><g id="icon_settings"><path d="M52.583,20.24c-1.927,0.522 -3.682,1.192 -5.373,2.022c-1.518,0.746 -2.985,1.624 -4.477,2.651c-3.783,-3.154 -6.844,-5.155 -9.493,-6.041c-4.427,-1.48 -8.16,-0.682 -12.132,3.053c-3.33,3.132 -4.375,6.147 -3.905,9.586c0.45,3.295 2.928,7.401 7.382,13.358c-0.588,1.156 -1.142,2.34 -1.661,3.549c-0.864,2.013 -1.632,4.093 -2.295,6.229c-0.461,1.485 -0.795,2.673 -1.044,3.853c-0.055,0.263 -0.107,0.525 -0.154,0.79c-5.248,0.765 -9.367,1.858 -12.165,3.678c-3.798,2.47 -5.846,6.07 -5.393,11.887c0.379,4.86 1.499,7.122 2.647,8.334c1.049,1.108 2.274,1.708 3.79,1.999c1.038,0.198 2.367,0.118 4.035,0.547l0.361,0.075c-0,0 3.1,0.503 6.959,0.588c1.328,0.029 2.743,0.007 4.156,-0.096c0.613,1.176 1.279,2.33 1.995,3.457c0.665,1.049 1.374,2.075 2.122,3.075c-4.617,6.251 -6.643,10.227 -6.893,13.186c-0.288,3.403 1.06,6.119 4.426,9.056c4.049,3.536 6.939,4.464 9.66,4.012c1.483,-0.247 3.028,-0.937 4.76,-2.226c2.017,-1.502 4.512,-4.022 8.217,-7.481c2.038,1.117 4.416,2.018 6.283,2.491c0.337,3.157 0.568,5.665 0.902,7.619c0.479,2.811 1.271,4.75 2.376,6.079c1.76,2.116 4.461,3.265 9.478,2.758c6.381,-0.646 9.1,-2.279 10.657,-5.215c1.128,-2.127 1.467,-5.53 1.87,-11.241c1.048,-0.257 2.034,-0.597 2.956,-0.998c0.932,-0.405 1.798,-0.871 2.6,-1.377c4.161,3.666 6.945,5.734 9.299,6.559c3.632,1.274 6.74,0.525 11.527,-2.857c4.415,-3.119 5.539,-6.925 4.971,-10.904c-0.469,-3.281 -2.427,-6.818 -4.768,-10.139c1.256,-1.345 2.226,-2.41 3.111,-3.707c0.589,-0.865 1.145,-1.824 1.705,-3.012c5.475,-0.592 9.564,-1.09 12.359,-2.737c3.13,-1.844 5.244,-4.845 5.75,-10.699c0.503,-5.812 -1.665,-8.984 -5.416,-10.986c-2.609,-1.392 -6.413,-2.039 -11.076,-2.533c-0.647,-2.25 -1.424,-4.202 -2.401,-6.112c-0.878,-1.714 -1.923,-3.394 -3.204,-5.231c3.224,-4.458 5.457,-8.329 6.275,-11.806c1.074,-4.565 0.168,-8.684 -3.696,-12.716c-2.776,-2.896 -6.201,-3.804 -10.179,-3.017c-3.786,0.748 -8.312,3.395 -13.19,7.359c-1.345,-0.917 -2.597,-1.682 -3.867,-2.367c-1.495,-0.806 -3.016,-1.5 -4.75,-2.182c-0.691,-6.533 -0.94,-11.696 -2.811,-14.819c-1.733,-2.892 -4.443,-4.793 -9.316,-4.946c-3.951,-0.124 -6.835,1.497 -8.964,4.435c-2.092,2.887 -3.323,7.532 -4.006,13.16Zm4.351,84.237c-1.731,-0.273 -4.99,-1.453 -6.556,-2.905c-0.001,-0 -0.001,-0 -0.001,-0c-1.482,-1.372 -3.767,-1.383 -5.263,-0.026c-5.194,4.703 -8.106,7.951 -10.458,9.439c-0.327,0.207 -0.607,0.326 -0.891,0.321c-0.295,-0.005 -0.575,-0.136 -0.893,-0.33c-0.63,-0.385 -1.331,-1.006 -2.235,-1.799c-0.84,-0.738 -1.459,-1.34 -1.642,-2.097c-0.108,-0.445 -0.037,-0.933 0.189,-1.527c0.932,-2.443 3.211,-5.604 6.902,-10.363c0.001,-0 0.001,-0.001 0.001,-0.001c1.145,-1.482 1.096,-3.562 -0.116,-4.988c-1.261,-1.488 -2.412,-3.056 -3.44,-4.688c-1.033,-1.64 -1.941,-3.347 -2.71,-5.104c-0,-0.001 -0.001,-0.002 -0.001,-0.002c-0.737,-1.677 -2.523,-2.635 -4.327,-2.322c-1.842,0.316 -3.842,0.369 -5.639,0.324c-2.757,-0.071 -5.055,-0.388 -5.694,-0.483c-1.349,-0.331 -2.912,-0.521 -3.833,-0.613c-0.006,-0.021 -0.011,-0.042 -0.016,-0.062c-0.184,-0.75 -0.307,-1.73 -0.402,-3.008c-0.16,-2.146 0.351,-3.578 1.755,-4.483c2.573,-1.658 6.673,-2.201 11.891,-2.784c0,-0 0.001,-0 0.002,-0c1.947,-0.222 3.46,-1.798 3.604,-3.752c0.088,-1.163 0.214,-2.089 0.415,-3.02c0.205,-0.953 0.487,-1.911 0.866,-3.11c0.587,-1.858 1.264,-3.667 2.025,-5.417c0.774,-1.781 1.636,-3.499 2.58,-5.145c0,-0 0.001,-0.001 0.001,-0.002c0.82,-1.436 0.701,-3.224 -0.301,-4.54c-3.461,-4.567 -5.908,-7.771 -6.959,-10.397c-0.273,-0.685 -0.364,-1.271 -0.208,-1.827c0.168,-0.6 0.596,-1.147 1.236,-1.744c1.253,-1.168 2.355,-1.668 3.744,-1.197c2.485,0.844 5.29,3.183 9.152,6.645c0.001,0.001 0.001,0.001 0.002,0.002c1.524,1.36 3.803,1.435 5.414,0.178c2.01,-1.56 3.85,-2.807 5.811,-3.761c1.891,-0.92 3.896,-1.554 6.285,-1.96c0.001,-0.001 0.002,-0.001 0.002,-0.001c1.914,-0.328 3.363,-1.91 3.523,-3.846c-0,-0.001 -0,-0.002 0,-0.002c0.353,-4.402 0.838,-8.257 2.061,-10.94c0.548,-1.202 1.215,-2.117 2.499,-2.082c0.862,0.023 1.5,0.181 1.963,0.531c0.439,0.333 0.696,0.831 0.883,1.453c0.929,3.098 0.879,7.563 1.564,12.895c0.197,1.559 1.26,2.876 2.746,3.397c0.001,0.001 0.001,0.001 0.002,0.001c2.378,0.829 4.24,1.584 6.052,2.55c1.746,0.931 3.445,2.055 5.523,3.599c1.562,1.166 3.73,1.077 5.193,-0.215c0,-0.001 0.001,-0.001 0.001,-0.002c3.77,-3.346 7.235,-5.969 10.308,-7.184c1.684,-0.667 3.16,-0.966 4.263,0.175c1.614,1.668 2.116,3.342 1.678,5.241c-0.748,3.248 -3.27,6.812 -6.567,11.193c-1.076,1.422 -1.081,3.387 -0.012,4.817c0.001,0 0.001,0.001 0.001,0.001c1.824,2.43 3.207,4.433 4.28,6.512c1.077,2.086 1.829,4.245 2.446,7.01c0.374,1.688 1.798,2.943 3.522,3.1c0.001,0.001 0.001,0.001 0.002,0.001c4.645,0.417 8.462,0.585 10.895,1.874c1.093,0.578 1.411,1.636 1.271,3.327c-0.199,2.398 -0.611,3.841 -1.89,4.601c-1.175,0.697 -2.681,1.02 -4.504,1.262c-1.98,0.263 -4.311,0.413 -6.988,0.72c-1.444,0.163 -2.679,1.115 -3.204,2.471c-0,0 -0,0.001 -0.001,0.001c-0.624,1.618 -1.178,2.733 -1.816,3.674c-1.15,1.696 -2.515,2.895 -4.601,5.218c-1.261,1.399 -1.338,3.501 -0.183,4.989c-0,0 -0,0 -0,0.001c2.272,2.925 4.766,6.096 5.203,9.127c0.187,1.292 -0.329,2.456 -1.762,3.47c-0.895,0.635 -1.635,1.169 -2.311,1.539c-0.764,0.419 -1.41,0.61 -2.179,0.342c-2.193,-0.766 -4.669,-3.152 -9.053,-7.105c-1.465,-1.324 -3.694,-1.328 -5.165,-0.01c-0,-0 -0,0 -0.001,0c-0.895,0.803 -1.998,1.589 -3.317,2.164c-1.088,0.475 -2.325,0.805 -3.712,0.88c-1.94,0.103 -3.5,1.635 -3.639,3.574c-0.265,3.688 -0.305,6.408 -0.525,8.426c-0.13,1.19 -0.31,2.108 -0.686,2.816c-0.187,0.352 -0.564,0.429 -1.047,0.568c-0.927,0.266 -2.095,0.426 -3.566,0.572c-0.881,0.088 -1.58,0.149 -2.132,0.086c-0.236,-0.027 -0.432,-0.067 -0.582,-0.187c-0.152,-0.12 -0.241,-0.311 -0.323,-0.563c-0.781,-2.397 -0.898,-6.295 -1.583,-12.18c-0,-0 -0,-0 -0,-0.001c-0.184,-1.564 -1.294,-2.863 -2.811,-3.288c-0.671,-0.188 -1.363,-0.189 -2.01,-0.024l-0.001,-0Zm-1.483,7.464l0.001,0.013l-0.099,0.111c-0,0 0.038,-0.046 0.098,-0.124Zm14.365,-70.778l-0.018,-0.002c-3.544,-0.205 -9.371,0.35 -14.628,3.078c-4.292,2.226 -8.225,5.823 -10.383,11.482c-2.145,5.598 -2.435,13.592 0.431,20.091c2.684,6.083 7.943,10.996 16.875,11.714c6.379,0.549 12.44,-0.664 17.163,-3.389c5.516,-3.182 9.304,-8.385 9.95,-15.493c0.484,-5.173 0.015,-12.145 -3.082,-17.676c-2.866,-5.118 -7.844,-9.165 -16.308,-9.806l0,0.001Zm-0.506,8.497c-0.02,0 -0.04,-0 -0.06,-0.001c4.954,0.285 8.001,2.431 9.729,5.393c2.335,4.004 2.582,9.13 2.292,12.918c-0.34,4.309 -2.606,7.489 -5.93,9.443c-3.449,2.028 -7.922,2.812 -12.604,2.432c-5.464,-0.478 -8.734,-3.416 -10.338,-7.156c-1.953,-4.557 -1.646,-10.14 -0.094,-14.027c1.407,-3.506 3.92,-5.686 6.621,-7.029c3.723,-1.851 7.821,-2.163 10.305,-1.976l0.079,0.003c0,0 -0.07,-0.002 -0.07,-0.002c0,0 0.07,0.002 0.07,0.002Zm0.165,-1.036c-0.06,0.52 -0.165,1.036 -0.165,1.036c0.547,0 0.998,-0.419 1.043,-0.958c-0.286,-0.032 -0.579,-0.059 -0.878,-0.078Z" style="fill:#fff;"/><path d="M71.123,94.058c-0.989,0.148 -1.985,0.255 -2.981,0.323c-0.861,0.058 -1.512,0.804 -1.454,1.664c0.058,0.86 0.804,1.512 1.664,1.454c1.081,-0.073 2.16,-0.19 3.232,-0.35c0.853,-0.127 1.442,-0.923 1.315,-1.776c-0.128,-0.853 -0.924,-1.442 -1.776,-1.315Zm-11.924,-0.183c-0.982,-0.184 -1.95,-0.411 -2.899,-0.683c-0.829,-0.237 -1.695,0.244 -1.932,1.073c-0.237,0.829 0.243,1.695 1.072,1.932c1.042,0.298 2.105,0.548 3.183,0.75c0.848,0.159 1.665,-0.4 1.824,-1.248c0.159,-0.848 -0.4,-1.665 -1.248,-1.824Zm23.23,-3.519c-0.869,0.471 -1.765,0.901 -2.683,1.292c-0.793,0.337 -1.163,1.256 -0.826,2.049c0.338,0.794 1.256,1.164 2.05,0.826c1.008,-0.429 1.992,-0.902 2.947,-1.419c0.758,-0.41 1.041,-1.359 0.63,-2.118c-0.411,-0.758 -1.36,-1.041 -2.118,-0.63Zm-34.306,-0.736c-0.853,-0.523 -1.668,-1.083 -2.445,-1.677c-0.685,-0.523 -1.667,-0.392 -2.191,0.293c-0.523,0.685 -0.392,1.667 0.293,2.19c0.86,0.658 1.763,1.277 2.707,1.857c0.735,0.452 1.698,0.221 2.15,-0.514c0.451,-0.734 0.221,-1.697 -0.514,-2.149Zm43.154,-6.9c-0.567,0.797 -1.185,1.553 -1.846,2.27c-0.585,0.633 -0.546,1.623 0.088,2.208c0.633,0.585 1.623,0.546 2.208,-0.088c0.751,-0.813 1.451,-1.672 2.095,-2.576c0.501,-0.702 0.337,-1.678 -0.365,-2.179c-0.702,-0.501 -1.679,-0.337 -2.18,0.365Zm-51.609,-1.204c-0.533,-0.82 -1.016,-1.671 -1.445,-2.55c-0.378,-0.775 -1.315,-1.097 -2.09,-0.719c-0.775,0.378 -1.097,1.314 -0.719,2.089c0.486,0.995 1.031,1.957 1.635,2.884c0.47,0.723 1.439,0.928 2.162,0.458c0.722,-0.47 0.928,-1.439 0.457,-2.162Zm55.652,-9.653c-0.117,0.996 -0.28,1.967 -0.491,2.906c-0.001,0.004 -0.002,0.008 -0.003,0.012c-0.19,0.841 0.339,1.678 1.18,1.868c0.842,0.19 1.679,-0.339 1.868,-1.18c0.001,-0.005 0.002,-0.01 0.004,-0.014c0.234,-1.043 0.416,-2.123 0.546,-3.229c0.1,-0.856 -0.514,-1.633 -1.371,-1.733c-0.857,-0.1 -1.633,0.514 -1.733,1.37Zm-59.428,-1.337c-0.086,-0.964 -0.118,-1.947 -0.094,-2.946c0.021,-0.862 -0.663,-1.579 -1.525,-1.6c-0.862,-0.02 -1.579,0.663 -1.599,1.525c-0.027,1.12 0.009,2.22 0.105,3.298c0.077,0.859 0.837,1.495 1.696,1.418c0.859,-0.077 1.494,-0.836 1.417,-1.695Zm58.726,-10.559c0.222,0.981 0.403,1.966 0.544,2.951c0.122,0.854 0.914,1.448 1.768,1.325c0.854,-0.122 1.447,-0.914 1.325,-1.768c-0.153,-1.066 -0.349,-2.133 -0.588,-3.195c-0.19,-0.841 -1.027,-1.37 -1.868,-1.181c-0.841,0.19 -1.37,1.027 -1.181,1.868Zm-57.266,-1.141c0.316,-0.976 0.664,-1.91 1.041,-2.805c0.335,-0.795 -0.039,-1.712 -0.833,-2.047c-0.795,-0.335 -1.712,0.039 -2.047,0.833c-0.411,0.975 -0.789,1.992 -1.134,3.054c-0.266,0.82 0.184,1.702 1.004,1.968c0.82,0.267 1.702,-0.183 1.969,-1.003Zm52.753,-9.864c0.535,0.832 1.029,1.693 1.484,2.577c0.395,0.767 1.337,1.07 2.104,0.675c0.767,-0.394 1.07,-1.337 0.675,-2.104c-0.5,-0.974 -1.045,-1.922 -1.633,-2.838c-0.467,-0.725 -1.434,-0.936 -2.16,-0.469c-0.725,0.466 -0.936,1.433 -0.47,2.159Zm-47.105,-0.506c0.648,-0.757 1.328,-1.465 2.039,-2.127c0.631,-0.587 0.667,-1.577 0.079,-2.208c-0.588,-0.631 -1.577,-0.667 -2.209,-0.079c-0.796,0.741 -1.558,1.535 -2.284,2.383c-0.56,0.655 -0.483,1.643 0.172,2.203c0.656,0.561 1.643,0.484 2.203,-0.172Zm36.685,-7.629c0.849,0.487 1.657,1.028 2.425,1.618c0.684,0.525 1.666,0.395 2.191,-0.289c0.525,-0.684 0.396,-1.666 -0.289,-2.191c-0.878,-0.674 -1.801,-1.292 -2.771,-1.848c-0.748,-0.43 -1.704,-0.171 -2.133,0.577c-0.429,0.748 -0.171,1.704 0.577,2.133Zm-26.229,0.629c0.9,-0.411 1.823,-0.78 2.766,-1.111c0.814,-0.286 1.243,-1.178 0.958,-1.992c-0.285,-0.814 -1.178,-1.243 -1.992,-0.957c-1.033,0.362 -2.045,0.767 -3.031,1.218c-0.784,0.358 -1.13,1.286 -0.772,2.07c0.359,0.785 1.286,1.131 2.071,0.772Zm13.657,-3.092c0.999,-0.12 2.008,-0.211 3.024,-0.275c0.861,-0.054 1.516,-0.797 1.462,-1.657c-0.054,-0.861 -0.797,-1.516 -1.658,-1.462c-1.076,0.068 -2.144,0.164 -3.2,0.291c-0.856,0.103 -1.468,0.881 -1.365,1.738c0.103,0.856 0.881,1.468 1.737,1.365Z" style="fill:#fff;"/></g></svg>