<?xml version="1.0" encoding="UTF-8" standalone="no"?><!DOCTYPE svg PUBLIC "-//W3C//DTD SVG 1.1//EN" "http://www.w3.org/Graphics/SVG/1.1/DTD/svg11.dtd"><svg width="100%" height="100%" viewBox="0 0 132 132" version="1.1" xmlns="http://www.w3.org/2000/svg" xmlns:xlink="http://www.w3.org/1999/xlink" xml:space="preserve" xmlns:serif="http://www.serif.com/" style="fill-rule:evenodd;clip-rule:evenodd;stroke-linejoin:round;stroke-miterlimit:2;"><rect id="ICONS-SVG" serif:id="ICONS SVG" x="0" y="0" width="131.067" height="131.086" style="fill:none;"/><g id="icon_twitter"><path d="M15.373,71.516c-0.976,0.343 -1.8,0.782 -2.409,1.277c-1.084,0.883 -1.736,1.985 -1.998,3.238c-0.255,1.222 -0.158,2.727 0.861,4.466c1.92,3.275 6.039,7.24 11.434,10.253c1.258,0.702 2.583,1.354 3.963,1.936c-0.494,0.126 -1.021,0.244 -1.579,0.352c-3.09,0.598 -7.009,0.859 -11.938,0.471c-3.986,-0.314 -5.969,1.349 -6.773,2.75c-0.922,1.605 -1.138,4.438 1.445,7.463c3.159,3.701 11.91,9.405 23.927,12.954c13.438,3.969 30.98,5.376 48.819,-1.405c15.38,-5.871 27.118,-16.79 33.43,-30.389c5.835,-12.573 7.072,-27.437 2.204,-42.688c2.012,-1.429 5.108,-3.879 7.502,-6.894c2.014,-2.536 3.526,-5.456 3.793,-8.49c0.088,-0.912 -0.27,-1.811 -0.962,-2.414c-0.691,-0.602 -1.631,-0.834 -2.523,-0.621l-3.248,0.842c0.434,-1.082 0.808,-2.172 1.012,-3.113c0.383,-1.771 0.15,-3.231 -0.387,-4.086c-0.393,-0.625 -0.98,-1.148 -1.841,-1.433c-0.78,-0.259 -2.031,-0.317 -3.535,-0.009c-2.84,0.581 -7.083,2.356 -9.333,3.35c-1.503,-1.277 -4.228,-3.36 -7.794,-5.107c-3.057,-1.499 -6.729,-2.735 -10.77,-3.053c-6.354,-0.5 -16.405,1.068 -22.709,8.579c-3.644,4.342 -6.112,10.71 -5.729,19.961c-8.256,-0.641 -16.085,-2.819 -23.392,-6.878c-7.478,-4.154 -14.391,-10.288 -20.682,-18.722c-0.717,-0.947 -1.857,-1.476 -3.044,-1.412c-1.186,0.063 -2.263,0.71 -2.876,1.728c0,0 -5.003,8.031 -3.425,19.976c0.365,2.761 1.085,5.74 2.316,8.878c-0.052,-0.001 -0.103,-0.003 -0.154,-0.003c-2.199,-0.023 -3.86,0.859 -4.915,2.336c-0.717,1.003 -1.244,2.456 -1.004,4.575c0.411,3.607 2.13,8.553 5.732,13.752c1.731,2.5 3.906,5.07 6.582,7.58Zm101.602,-51.231l-3.074,7.118c-0.554,0.971 -0.467,2.18 0.22,3.062c0.687,0.882 1.838,1.263 2.915,0.963l3.524,-0.847c-0.259,0.363 -0.535,0.719 -0.82,1.065c-3.288,3.998 -8.086,6.732 -8.086,6.732c-1.24,0.726 -1.794,2.227 -1.322,3.584c4.865,14.376 3.763,28.36 -1.877,40.031c-5.758,11.914 -16.264,21.381 -29.911,26.367c-10.201,3.739 -20.259,4.503 -29.322,3.643c-12.914,-1.225 -23.812,-5.779 -30.208,-9.937l-0.32,-0.205c4.706,-0.022 8.442,-0.618 11.381,-1.438c8.669,-2.419 11.242,-6.909 11.242,-6.909c0.779,-1.203 0.876,-2.724 0.256,-4.016c-0.62,-1.292 -1.867,-2.168 -3.293,-2.313c-3.984,-0.398 -7.795,-1.792 -11.036,-3.589c-2.646,-1.468 -4.926,-3.188 -6.552,-4.88c2.525,-0.157 5.275,0.192 5.275,0.192c1.871,0.205 3.633,-0.913 4.245,-2.692c0.612,-1.779 -0.09,-3.745 -1.691,-4.734c-4.899,-3.002 -8.662,-6.378 -11.45,-9.725c-3.01,-3.615 -4.883,-7.152 -5.767,-10.064c0.16,0.057 0.31,0.116 0.443,0.175c1.9,0.836 3.549,1.856 3.549,1.856c1.535,0.967 3.54,0.717 4.791,-0.597c1.252,-1.315 1.402,-3.329 0.361,-4.816c-3.842,-5.413 -5.655,-10.496 -6.298,-14.929c-0.58,-4 -0.217,-7.439 0.371,-10.035c5.959,6.7 12.35,11.749 19.113,15.366c9.317,4.985 19.333,7.283 29.92,7.395c0.901,0.017 1.765,-0.358 2.369,-1.027c0.604,-0.669 0.888,-1.567 0.778,-2.462c-1.183,-9.055 0.533,-15.16 3.77,-19.158c4.857,-5.999 12.818,-7.181 17.825,-6.88c3.323,0.201 6.351,1.181 8.884,2.365c4.766,2.228 7.816,5.159 7.816,5.159c0.75,0.742 1.882,0.939 2.839,0.496c-0,-0 6.21,-3.857 9.14,-4.316Zm-102.494,78.696c-0.468,-0.444 -0.623,-0.792 -0.245,-0.977c0.459,-0.225 0.4,0.376 0.245,0.977Z" style="fill:#fff;"/></g></svg>